<mxfile host="app.diagrams.net" modified="2021-04-21T15:34:18.043Z" agent="5.0 (Windows)" etag="yZlbcXuBDHsanJselD88" version="14.4.2" type="github" pages="2">
  <diagram id="C5RBs43oDa-KdzZeNtuy" name="LRS-data">
    <mxGraphModel dx="1422" dy="749" grid="1" gridSize="10" guides="1" tooltips="1" connect="1" arrows="1" fold="1" page="1" pageScale="1" pageWidth="827" pageHeight="1169" math="0" shadow="0">
      <root>
        <mxCell id="WIyWlLk6GJQsqaUBKTNV-0" />
        <mxCell id="WIyWlLk6GJQsqaUBKTNV-1" parent="WIyWlLk6GJQsqaUBKTNV-0" />
        <mxCell id="zkfFHV4jXpPFQw0GAbJ--0" value="employee_bank" style="swimlane;fontStyle=2;align=center;verticalAlign=top;childLayout=stackLayout;horizontal=1;startSize=26;horizontalStack=0;resizeParent=1;resizeLast=0;collapsible=1;marginBottom=0;rounded=0;shadow=0;strokeWidth=1;" parent="WIyWlLk6GJQsqaUBKTNV-1" vertex="1">
          <mxGeometry x="50" y="280" width="160" height="210" as="geometry">
            <mxRectangle x="230" y="140" width="160" height="26" as="alternateBounds" />
          </mxGeometry>
        </mxCell>
        <mxCell id="zkfFHV4jXpPFQw0GAbJ--2" value="nik (PK)&#xa;" style="text;align=left;verticalAlign=top;spacingLeft=4;spacingRight=4;overflow=hidden;rotatable=0;points=[[0,0.5],[1,0.5]];portConstraint=eastwest;rounded=0;shadow=0;html=0;" parent="zkfFHV4jXpPFQw0GAbJ--0" vertex="1">
          <mxGeometry y="26" width="160" height="26" as="geometry" />
        </mxCell>
        <mxCell id="zkfFHV4jXpPFQw0GAbJ--3" value="name_of_bank" style="text;align=left;verticalAlign=top;spacingLeft=4;spacingRight=4;overflow=hidden;rotatable=0;points=[[0,0.5],[1,0.5]];portConstraint=eastwest;rounded=0;shadow=0;html=0;" parent="zkfFHV4jXpPFQw0GAbJ--0" vertex="1">
          <mxGeometry y="52" width="160" height="26" as="geometry" />
        </mxCell>
        <mxCell id="oKk2NrzfjaoOSDjvsEfk-37" value="bank_account" style="text;align=left;verticalAlign=top;spacingLeft=4;spacingRight=4;overflow=hidden;rotatable=0;points=[[0,0.5],[1,0.5]];portConstraint=eastwest;rounded=0;shadow=0;html=0;" parent="zkfFHV4jXpPFQw0GAbJ--0" vertex="1">
          <mxGeometry y="78" width="160" height="26" as="geometry" />
        </mxCell>
        <mxCell id="zkfFHV4jXpPFQw0GAbJ--5" value="salary" style="text;align=left;verticalAlign=top;spacingLeft=4;spacingRight=4;overflow=hidden;rotatable=0;points=[[0,0.5],[1,0.5]];portConstraint=eastwest;" parent="zkfFHV4jXpPFQw0GAbJ--0" vertex="1">
          <mxGeometry y="104" width="160" height="26" as="geometry" />
        </mxCell>
        <mxCell id="oKk2NrzfjaoOSDjvsEfk-38" value="contract_of_period" style="text;align=left;verticalAlign=top;spacingLeft=4;spacingRight=4;overflow=hidden;rotatable=0;points=[[0,0.5],[1,0.5]];portConstraint=eastwest;" parent="zkfFHV4jXpPFQw0GAbJ--0" vertex="1">
          <mxGeometry y="130" width="160" height="26" as="geometry" />
        </mxCell>
        <mxCell id="oKk2NrzfjaoOSDjvsEfk-39" value="status" style="text;align=left;verticalAlign=top;spacingLeft=4;spacingRight=4;overflow=hidden;rotatable=0;points=[[0,0.5],[1,0.5]];portConstraint=eastwest;" parent="zkfFHV4jXpPFQw0GAbJ--0" vertex="1">
          <mxGeometry y="156" width="160" height="34" as="geometry" />
        </mxCell>
        <mxCell id="oKk2NrzfjaoOSDjvsEfk-50" value="" style="line;html=1;strokeWidth=1;align=left;verticalAlign=middle;spacingTop=-1;spacingLeft=3;spacingRight=3;rotatable=0;labelPosition=right;points=[];portConstraint=eastwest;" parent="zkfFHV4jXpPFQw0GAbJ--0" vertex="1">
          <mxGeometry y="190" width="160" height="8" as="geometry" />
        </mxCell>
        <mxCell id="zkfFHV4jXpPFQw0GAbJ--6" value="employee_status" style="swimlane;fontStyle=0;align=center;verticalAlign=top;childLayout=stackLayout;horizontal=1;startSize=26;horizontalStack=0;resizeParent=1;resizeLast=0;collapsible=1;marginBottom=0;rounded=0;shadow=0;strokeWidth=1;" parent="WIyWlLk6GJQsqaUBKTNV-1" vertex="1">
          <mxGeometry x="50" y="40" width="160" height="200" as="geometry">
            <mxRectangle x="130" y="380" width="160" height="26" as="alternateBounds" />
          </mxGeometry>
        </mxCell>
        <mxCell id="zkfFHV4jXpPFQw0GAbJ--7" value="nik (PK)" style="text;align=left;verticalAlign=top;spacingLeft=4;spacingRight=4;overflow=hidden;rotatable=0;points=[[0,0.5],[1,0.5]];portConstraint=eastwest;" parent="zkfFHV4jXpPFQw0GAbJ--6" vertex="1">
          <mxGeometry y="26" width="160" height="26" as="geometry" />
        </mxCell>
        <mxCell id="zkfFHV4jXpPFQw0GAbJ--8" value="tgl_gabung" style="text;align=left;verticalAlign=top;spacingLeft=4;spacingRight=4;overflow=hidden;rotatable=0;points=[[0,0.5],[1,0.5]];portConstraint=eastwest;rounded=0;shadow=0;html=0;" parent="zkfFHV4jXpPFQw0GAbJ--6" vertex="1">
          <mxGeometry y="52" width="160" height="26" as="geometry" />
        </mxCell>
        <mxCell id="oKk2NrzfjaoOSDjvsEfk-41" value="tgl_berhenti" style="text;align=left;verticalAlign=top;spacingLeft=4;spacingRight=4;overflow=hidden;rotatable=0;points=[[0,0.5],[1,0.5]];portConstraint=eastwest;rounded=0;shadow=0;html=0;" parent="zkfFHV4jXpPFQw0GAbJ--6" vertex="1">
          <mxGeometry y="78" width="160" height="26" as="geometry" />
        </mxCell>
        <mxCell id="oKk2NrzfjaoOSDjvsEfk-42" value="tgl_tidak_aktif_kerja" style="text;align=left;verticalAlign=top;spacingLeft=4;spacingRight=4;overflow=hidden;rotatable=0;points=[[0,0.5],[1,0.5]];portConstraint=eastwest;rounded=0;shadow=0;html=0;" parent="zkfFHV4jXpPFQw0GAbJ--6" vertex="1">
          <mxGeometry y="104" width="160" height="26" as="geometry" />
        </mxCell>
        <mxCell id="oKk2NrzfjaoOSDjvsEfk-40" value="keterangan_berhenti" style="text;align=left;verticalAlign=top;spacingLeft=4;spacingRight=4;overflow=hidden;rotatable=0;points=[[0,0.5],[1,0.5]];portConstraint=eastwest;rounded=0;shadow=0;html=0;" parent="zkfFHV4jXpPFQw0GAbJ--6" vertex="1">
          <mxGeometry y="130" width="160" height="26" as="geometry" />
        </mxCell>
        <mxCell id="zkfFHV4jXpPFQw0GAbJ--11" value="periode kontrak" style="text;align=left;verticalAlign=top;spacingLeft=4;spacingRight=4;overflow=hidden;rotatable=0;points=[[0,0.5],[1,0.5]];portConstraint=eastwest;" parent="zkfFHV4jXpPFQw0GAbJ--6" vertex="1">
          <mxGeometry y="156" width="160" height="26" as="geometry" />
        </mxCell>
        <mxCell id="zkfFHV4jXpPFQw0GAbJ--15" value="" style="line;html=1;strokeWidth=1;align=left;verticalAlign=middle;spacingTop=-1;spacingLeft=3;spacingRight=3;rotatable=0;labelPosition=right;points=[];portConstraint=eastwest;" parent="zkfFHV4jXpPFQw0GAbJ--6" vertex="1">
          <mxGeometry y="182" width="160" height="8" as="geometry" />
        </mxCell>
        <mxCell id="zkfFHV4jXpPFQw0GAbJ--13" value="absensi" style="swimlane;fontStyle=0;align=center;verticalAlign=top;childLayout=stackLayout;horizontal=1;startSize=26;horizontalStack=0;resizeParent=1;resizeLast=0;collapsible=1;marginBottom=0;rounded=0;shadow=0;strokeWidth=1;" parent="WIyWlLk6GJQsqaUBKTNV-1" vertex="1">
          <mxGeometry x="600" y="40" width="160" height="200" as="geometry">
            <mxRectangle x="340" y="380" width="170" height="26" as="alternateBounds" />
          </mxGeometry>
        </mxCell>
        <mxCell id="zkfFHV4jXpPFQw0GAbJ--14" value="nik (PK)" style="text;align=left;verticalAlign=top;spacingLeft=4;spacingRight=4;overflow=hidden;rotatable=0;points=[[0,0.5],[1,0.5]];portConstraint=eastwest;" parent="zkfFHV4jXpPFQw0GAbJ--13" vertex="1">
          <mxGeometry y="26" width="160" height="26" as="geometry" />
        </mxCell>
        <mxCell id="oKk2NrzfjaoOSDjvsEfk-43" value="date (FK)" style="text;align=left;verticalAlign=top;spacingLeft=4;spacingRight=4;overflow=hidden;rotatable=0;points=[[0,0.5],[1,0.5]];portConstraint=eastwest;" parent="zkfFHV4jXpPFQw0GAbJ--13" vertex="1">
          <mxGeometry y="52" width="160" height="26" as="geometry" />
        </mxCell>
        <mxCell id="oKk2NrzfjaoOSDjvsEfk-44" value="time" style="text;align=left;verticalAlign=top;spacingLeft=4;spacingRight=4;overflow=hidden;rotatable=0;points=[[0,0.5],[1,0.5]];portConstraint=eastwest;" parent="zkfFHV4jXpPFQw0GAbJ--13" vertex="1">
          <mxGeometry y="78" width="160" height="26" as="geometry" />
        </mxCell>
        <mxCell id="oKk2NrzfjaoOSDjvsEfk-45" value="status (FK)" style="text;align=left;verticalAlign=top;spacingLeft=4;spacingRight=4;overflow=hidden;rotatable=0;points=[[0,0.5],[1,0.5]];portConstraint=eastwest;" parent="zkfFHV4jXpPFQw0GAbJ--13" vertex="1">
          <mxGeometry y="104" width="160" height="26" as="geometry" />
        </mxCell>
        <mxCell id="oKk2NrzfjaoOSDjvsEfk-46" value="activity" style="text;align=left;verticalAlign=top;spacingLeft=4;spacingRight=4;overflow=hidden;rotatable=0;points=[[0,0.5],[1,0.5]];portConstraint=eastwest;" parent="zkfFHV4jXpPFQw0GAbJ--13" vertex="1">
          <mxGeometry y="130" width="160" height="26" as="geometry" />
        </mxCell>
        <mxCell id="oKk2NrzfjaoOSDjvsEfk-47" value="remarks" style="text;align=left;verticalAlign=top;spacingLeft=4;spacingRight=4;overflow=hidden;rotatable=0;points=[[0,0.5],[1,0.5]];portConstraint=eastwest;" parent="zkfFHV4jXpPFQw0GAbJ--13" vertex="1">
          <mxGeometry y="156" width="160" height="26" as="geometry" />
        </mxCell>
        <mxCell id="zkfFHV4jXpPFQw0GAbJ--9" value="" style="line;html=1;strokeWidth=1;align=left;verticalAlign=middle;spacingTop=-1;spacingLeft=3;spacingRight=3;rotatable=0;labelPosition=right;points=[];portConstraint=eastwest;" parent="zkfFHV4jXpPFQw0GAbJ--13" vertex="1">
          <mxGeometry y="182" width="160" height="8" as="geometry" />
        </mxCell>
        <mxCell id="oKk2NrzfjaoOSDjvsEfk-0" value="employee" style="swimlane;fontStyle=2;align=center;verticalAlign=top;childLayout=stackLayout;horizontal=1;startSize=26;horizontalStack=0;resizeParent=1;resizeLast=0;collapsible=1;marginBottom=0;rounded=0;shadow=0;strokeWidth=1;" parent="WIyWlLk6GJQsqaUBKTNV-1" vertex="1">
          <mxGeometry x="334" y="40" width="160" height="950" as="geometry">
            <mxRectangle x="230" y="140" width="160" height="26" as="alternateBounds" />
          </mxGeometry>
        </mxCell>
        <mxCell id="oKk2NrzfjaoOSDjvsEfk-2" value="nik (PK)" style="text;align=left;verticalAlign=top;spacingLeft=4;spacingRight=4;overflow=hidden;rotatable=0;points=[[0,0.5],[1,0.5]];portConstraint=eastwest;rounded=0;shadow=0;html=0;" parent="oKk2NrzfjaoOSDjvsEfk-0" vertex="1">
          <mxGeometry y="26" width="160" height="26" as="geometry" />
        </mxCell>
        <mxCell id="oKk2NrzfjaoOSDjvsEfk-35" value="nama" style="text;align=left;verticalAlign=top;spacingLeft=4;spacingRight=4;overflow=hidden;rotatable=0;points=[[0,0.5],[1,0.5]];portConstraint=eastwest;rounded=0;shadow=0;html=0;" parent="oKk2NrzfjaoOSDjvsEfk-0" vertex="1">
          <mxGeometry y="52" width="160" height="26" as="geometry" />
        </mxCell>
        <mxCell id="oKk2NrzfjaoOSDjvsEfk-3" value="id_klien (FK)" style="text;align=left;verticalAlign=top;spacingLeft=4;spacingRight=4;overflow=hidden;rotatable=0;points=[[0,0.5],[1,0.5]];portConstraint=eastwest;rounded=0;shadow=0;html=0;" parent="oKk2NrzfjaoOSDjvsEfk-0" vertex="1">
          <mxGeometry y="78" width="160" height="26" as="geometry" />
        </mxCell>
        <mxCell id="oKk2NrzfjaoOSDjvsEfk-6" value="posisi (FK)" style="text;align=left;verticalAlign=top;spacingLeft=4;spacingRight=4;overflow=hidden;rotatable=0;points=[[0,0.5],[1,0.5]];portConstraint=eastwest;rounded=0;shadow=0;html=0;" parent="oKk2NrzfjaoOSDjvsEfk-0" vertex="1">
          <mxGeometry y="104" width="160" height="26" as="geometry" />
        </mxCell>
        <mxCell id="oKk2NrzfjaoOSDjvsEfk-7" value="tgl_lahir" style="text;align=left;verticalAlign=top;spacingLeft=4;spacingRight=4;overflow=hidden;rotatable=0;points=[[0,0.5],[1,0.5]];portConstraint=eastwest;rounded=0;shadow=0;html=0;" parent="oKk2NrzfjaoOSDjvsEfk-0" vertex="1">
          <mxGeometry y="130" width="160" height="26" as="geometry" />
        </mxCell>
        <mxCell id="oKk2NrzfjaoOSDjvsEfk-8" value="tempat_lahir" style="text;align=left;verticalAlign=top;spacingLeft=4;spacingRight=4;overflow=hidden;rotatable=0;points=[[0,0.5],[1,0.5]];portConstraint=eastwest;rounded=0;shadow=0;html=0;" parent="oKk2NrzfjaoOSDjvsEfk-0" vertex="1">
          <mxGeometry y="156" width="160" height="26" as="geometry" />
        </mxCell>
        <mxCell id="oKk2NrzfjaoOSDjvsEfk-11" value="jenis_kelamin" style="text;align=left;verticalAlign=top;spacingLeft=4;spacingRight=4;overflow=hidden;rotatable=0;points=[[0,0.5],[1,0.5]];portConstraint=eastwest;rounded=0;shadow=0;html=0;" parent="oKk2NrzfjaoOSDjvsEfk-0" vertex="1">
          <mxGeometry y="182" width="160" height="26" as="geometry" />
        </mxCell>
        <mxCell id="oKk2NrzfjaoOSDjvsEfk-9" value="golongan_darah" style="text;align=left;verticalAlign=top;spacingLeft=4;spacingRight=4;overflow=hidden;rotatable=0;points=[[0,0.5],[1,0.5]];portConstraint=eastwest;rounded=0;shadow=0;html=0;" parent="oKk2NrzfjaoOSDjvsEfk-0" vertex="1">
          <mxGeometry y="208" width="160" height="26" as="geometry" />
        </mxCell>
        <mxCell id="oKk2NrzfjaoOSDjvsEfk-10" value="menikah" style="text;align=left;verticalAlign=top;spacingLeft=4;spacingRight=4;overflow=hidden;rotatable=0;points=[[0,0.5],[1,0.5]];portConstraint=eastwest;rounded=0;shadow=0;html=0;" parent="oKk2NrzfjaoOSDjvsEfk-0" vertex="1">
          <mxGeometry y="234" width="160" height="26" as="geometry" />
        </mxCell>
        <mxCell id="oKk2NrzfjaoOSDjvsEfk-14" value="agama" style="text;align=left;verticalAlign=top;spacingLeft=4;spacingRight=4;overflow=hidden;rotatable=0;points=[[0,0.5],[1,0.5]];portConstraint=eastwest;rounded=0;shadow=0;html=0;" parent="oKk2NrzfjaoOSDjvsEfk-0" vertex="1">
          <mxGeometry y="260" width="160" height="26" as="geometry" />
        </mxCell>
        <mxCell id="oKk2NrzfjaoOSDjvsEfk-16" value="kewarganegaraan" style="text;align=left;verticalAlign=top;spacingLeft=4;spacingRight=4;overflow=hidden;rotatable=0;points=[[0,0.5],[1,0.5]];portConstraint=eastwest;rounded=0;shadow=0;html=0;" parent="oKk2NrzfjaoOSDjvsEfk-0" vertex="1">
          <mxGeometry y="286" width="160" height="26" as="geometry" />
        </mxCell>
        <mxCell id="oKk2NrzfjaoOSDjvsEfk-13" value="phone" style="text;align=left;verticalAlign=top;spacingLeft=4;spacingRight=4;overflow=hidden;rotatable=0;points=[[0,0.5],[1,0.5]];portConstraint=eastwest;rounded=0;shadow=0;html=0;" parent="oKk2NrzfjaoOSDjvsEfk-0" vertex="1">
          <mxGeometry y="312" width="160" height="26" as="geometry" />
        </mxCell>
        <mxCell id="oKk2NrzfjaoOSDjvsEfk-12" value="email" style="text;align=left;verticalAlign=top;spacingLeft=4;spacingRight=4;overflow=hidden;rotatable=0;points=[[0,0.5],[1,0.5]];portConstraint=eastwest;rounded=0;shadow=0;html=0;" parent="oKk2NrzfjaoOSDjvsEfk-0" vertex="1">
          <mxGeometry y="338" width="160" height="26" as="geometry" />
        </mxCell>
        <mxCell id="oKk2NrzfjaoOSDjvsEfk-15" value="id_type" style="text;align=left;verticalAlign=top;spacingLeft=4;spacingRight=4;overflow=hidden;rotatable=0;points=[[0,0.5],[1,0.5]];portConstraint=eastwest;rounded=0;shadow=0;html=0;" parent="oKk2NrzfjaoOSDjvsEfk-0" vertex="1">
          <mxGeometry y="364" width="160" height="26" as="geometry" />
        </mxCell>
        <mxCell id="oKk2NrzfjaoOSDjvsEfk-18" value="&amp;nbsp;id_number" style="text;whiteSpace=wrap;html=1;" parent="oKk2NrzfjaoOSDjvsEfk-0" vertex="1">
          <mxGeometry y="390" width="160" height="30" as="geometry" />
        </mxCell>
        <mxCell id="oKk2NrzfjaoOSDjvsEfk-22" value="&amp;nbsp;card_expired" style="text;whiteSpace=wrap;html=1;" parent="oKk2NrzfjaoOSDjvsEfk-0" vertex="1">
          <mxGeometry y="420" width="160" height="30" as="geometry" />
        </mxCell>
        <mxCell id="oKk2NrzfjaoOSDjvsEfk-20" value="&amp;nbsp;street" style="text;whiteSpace=wrap;html=1;" parent="oKk2NrzfjaoOSDjvsEfk-0" vertex="1">
          <mxGeometry y="450" width="160" height="30" as="geometry" />
        </mxCell>
        <mxCell id="oKk2NrzfjaoOSDjvsEfk-17" value="&amp;nbsp;city" style="text;whiteSpace=wrap;html=1;" parent="oKk2NrzfjaoOSDjvsEfk-0" vertex="1">
          <mxGeometry y="480" width="160" height="30" as="geometry" />
        </mxCell>
        <mxCell id="oKk2NrzfjaoOSDjvsEfk-21" value="&amp;nbsp;country" style="text;whiteSpace=wrap;html=1;" parent="oKk2NrzfjaoOSDjvsEfk-0" vertex="1">
          <mxGeometry y="510" width="160" height="30" as="geometry" />
        </mxCell>
        <mxCell id="oKk2NrzfjaoOSDjvsEfk-19" value="&amp;nbsp;state" style="text;whiteSpace=wrap;html=1;" parent="oKk2NrzfjaoOSDjvsEfk-0" vertex="1">
          <mxGeometry y="540" width="160" height="30" as="geometry" />
        </mxCell>
        <mxCell id="oKk2NrzfjaoOSDjvsEfk-23" value="&amp;nbsp;original_street" style="text;whiteSpace=wrap;html=1;" parent="oKk2NrzfjaoOSDjvsEfk-0" vertex="1">
          <mxGeometry y="570" width="160" height="30" as="geometry" />
        </mxCell>
        <mxCell id="oKk2NrzfjaoOSDjvsEfk-24" value="&amp;nbsp;original_city" style="text;whiteSpace=wrap;html=1;" parent="oKk2NrzfjaoOSDjvsEfk-0" vertex="1">
          <mxGeometry y="600" width="160" height="30" as="geometry" />
        </mxCell>
        <mxCell id="oKk2NrzfjaoOSDjvsEfk-25" value="&amp;nbsp;npwp" style="text;whiteSpace=wrap;html=1;" parent="oKk2NrzfjaoOSDjvsEfk-0" vertex="1">
          <mxGeometry y="630" width="160" height="30" as="geometry" />
        </mxCell>
        <mxCell id="oKk2NrzfjaoOSDjvsEfk-26" value="&amp;nbsp;ptkp_code" style="text;whiteSpace=wrap;html=1;" parent="oKk2NrzfjaoOSDjvsEfk-0" vertex="1">
          <mxGeometry y="660" width="160" height="30" as="geometry" />
        </mxCell>
        <mxCell id="oKk2NrzfjaoOSDjvsEfk-27" value="&amp;nbsp;ptkp_name" style="text;whiteSpace=wrap;html=1;" parent="oKk2NrzfjaoOSDjvsEfk-0" vertex="1">
          <mxGeometry y="690" width="160" height="30" as="geometry" />
        </mxCell>
        <mxCell id="oKk2NrzfjaoOSDjvsEfk-28" value="&amp;nbsp;allowance" style="text;whiteSpace=wrap;html=1;" parent="oKk2NrzfjaoOSDjvsEfk-0" vertex="1">
          <mxGeometry y="720" width="160" height="30" as="geometry" />
        </mxCell>
        <mxCell id="oKk2NrzfjaoOSDjvsEfk-29" value="&amp;nbsp;overtime_allowance" style="text;whiteSpace=wrap;html=1;" parent="oKk2NrzfjaoOSDjvsEfk-0" vertex="1">
          <mxGeometry y="750" width="160" height="30" as="geometry" />
        </mxCell>
        <mxCell id="oKk2NrzfjaoOSDjvsEfk-30" value="&amp;nbsp;education_level" style="text;whiteSpace=wrap;html=1;" parent="oKk2NrzfjaoOSDjvsEfk-0" vertex="1">
          <mxGeometry y="780" width="160" height="30" as="geometry" />
        </mxCell>
        <mxCell id="oKk2NrzfjaoOSDjvsEfk-33" value="&amp;nbsp;education_major" style="text;whiteSpace=wrap;html=1;" parent="oKk2NrzfjaoOSDjvsEfk-0" vertex="1">
          <mxGeometry y="810" width="160" height="30" as="geometry" />
        </mxCell>
        <mxCell id="oKk2NrzfjaoOSDjvsEfk-32" value="&amp;nbsp;institution_name" style="text;whiteSpace=wrap;html=1;" parent="oKk2NrzfjaoOSDjvsEfk-0" vertex="1">
          <mxGeometry y="840" width="160" height="30" as="geometry" />
        </mxCell>
        <mxCell id="oKk2NrzfjaoOSDjvsEfk-31" value="&amp;nbsp;graduation_year" style="text;whiteSpace=wrap;html=1;" parent="oKk2NrzfjaoOSDjvsEfk-0" vertex="1">
          <mxGeometry y="870" width="160" height="30" as="geometry" />
        </mxCell>
        <mxCell id="oKk2NrzfjaoOSDjvsEfk-34" value="billing_rate" style="text;whiteSpace=wrap;html=1;" parent="oKk2NrzfjaoOSDjvsEfk-0" vertex="1">
          <mxGeometry y="900" width="160" height="30" as="geometry" />
        </mxCell>
        <mxCell id="oKk2NrzfjaoOSDjvsEfk-4" value="" style="line;html=1;strokeWidth=1;align=left;verticalAlign=middle;spacingTop=-1;spacingLeft=3;spacingRight=3;rotatable=0;labelPosition=right;points=[];portConstraint=eastwest;" parent="oKk2NrzfjaoOSDjvsEfk-0" vertex="1">
          <mxGeometry y="930" width="160" height="10" as="geometry" />
        </mxCell>
        <mxCell id="oKk2NrzfjaoOSDjvsEfk-51" value="client" style="swimlane;fontStyle=0;align=center;verticalAlign=top;childLayout=stackLayout;horizontal=1;startSize=26;horizontalStack=0;resizeParent=1;resizeLast=0;collapsible=1;marginBottom=0;rounded=0;shadow=0;strokeWidth=1;" parent="WIyWlLk6GJQsqaUBKTNV-1" vertex="1">
          <mxGeometry x="50" y="516" width="160" height="180" as="geometry">
            <mxRectangle x="340" y="380" width="170" height="26" as="alternateBounds" />
          </mxGeometry>
        </mxCell>
        <mxCell id="oKk2NrzfjaoOSDjvsEfk-52" value="id (PK)" style="text;align=left;verticalAlign=top;spacingLeft=4;spacingRight=4;overflow=hidden;rotatable=0;points=[[0,0.5],[1,0.5]];portConstraint=eastwest;" parent="oKk2NrzfjaoOSDjvsEfk-51" vertex="1">
          <mxGeometry y="26" width="160" height="26" as="geometry" />
        </mxCell>
        <mxCell id="oKk2NrzfjaoOSDjvsEfk-53" value="name" style="text;align=left;verticalAlign=top;spacingLeft=4;spacingRight=4;overflow=hidden;rotatable=0;points=[[0,0.5],[1,0.5]];portConstraint=eastwest;" parent="oKk2NrzfjaoOSDjvsEfk-51" vertex="1">
          <mxGeometry y="52" width="160" height="26" as="geometry" />
        </mxCell>
        <mxCell id="oKk2NrzfjaoOSDjvsEfk-54" value="address" style="text;align=left;verticalAlign=top;spacingLeft=4;spacingRight=4;overflow=hidden;rotatable=0;points=[[0,0.5],[1,0.5]];portConstraint=eastwest;" parent="oKk2NrzfjaoOSDjvsEfk-51" vertex="1">
          <mxGeometry y="78" width="160" height="26" as="geometry" />
        </mxCell>
        <mxCell id="oKk2NrzfjaoOSDjvsEfk-55" value="phone" style="text;align=left;verticalAlign=top;spacingLeft=4;spacingRight=4;overflow=hidden;rotatable=0;points=[[0,0.5],[1,0.5]];portConstraint=eastwest;" parent="oKk2NrzfjaoOSDjvsEfk-51" vertex="1">
          <mxGeometry y="104" width="160" height="26" as="geometry" />
        </mxCell>
        <mxCell id="oKk2NrzfjaoOSDjvsEfk-56" value="npwp" style="text;align=left;verticalAlign=top;spacingLeft=4;spacingRight=4;overflow=hidden;rotatable=0;points=[[0,0.5],[1,0.5]];portConstraint=eastwest;" parent="oKk2NrzfjaoOSDjvsEfk-51" vertex="1">
          <mxGeometry y="130" width="160" height="26" as="geometry" />
        </mxCell>
        <mxCell id="oKk2NrzfjaoOSDjvsEfk-58" value="" style="line;html=1;strokeWidth=1;align=left;verticalAlign=middle;spacingTop=-1;spacingLeft=3;spacingRight=3;rotatable=0;labelPosition=right;points=[];portConstraint=eastwest;" parent="oKk2NrzfjaoOSDjvsEfk-51" vertex="1">
          <mxGeometry y="156" width="160" height="8" as="geometry" />
        </mxCell>
        <mxCell id="oKk2NrzfjaoOSDjvsEfk-59" value="position" style="swimlane;fontStyle=0;align=center;verticalAlign=top;childLayout=stackLayout;horizontal=1;startSize=26;horizontalStack=0;resizeParent=1;resizeLast=0;collapsible=1;marginBottom=0;rounded=0;shadow=0;strokeWidth=1;" parent="WIyWlLk6GJQsqaUBKTNV-1" vertex="1">
          <mxGeometry x="50" y="720" width="160" height="100" as="geometry">
            <mxRectangle x="340" y="380" width="170" height="26" as="alternateBounds" />
          </mxGeometry>
        </mxCell>
        <mxCell id="oKk2NrzfjaoOSDjvsEfk-60" value="id (PK)" style="text;align=left;verticalAlign=top;spacingLeft=4;spacingRight=4;overflow=hidden;rotatable=0;points=[[0,0.5],[1,0.5]];portConstraint=eastwest;" parent="oKk2NrzfjaoOSDjvsEfk-59" vertex="1">
          <mxGeometry y="26" width="160" height="26" as="geometry" />
        </mxCell>
        <mxCell id="oKk2NrzfjaoOSDjvsEfk-61" value="name" style="text;align=left;verticalAlign=top;spacingLeft=4;spacingRight=4;overflow=hidden;rotatable=0;points=[[0,0.5],[1,0.5]];portConstraint=eastwest;" parent="oKk2NrzfjaoOSDjvsEfk-59" vertex="1">
          <mxGeometry y="52" width="160" height="26" as="geometry" />
        </mxCell>
        <mxCell id="oKk2NrzfjaoOSDjvsEfk-66" value="" style="line;html=1;strokeWidth=1;align=left;verticalAlign=middle;spacingTop=-1;spacingLeft=3;spacingRight=3;rotatable=0;labelPosition=right;points=[];portConstraint=eastwest;" parent="oKk2NrzfjaoOSDjvsEfk-59" vertex="1">
          <mxGeometry y="78" width="160" height="8" as="geometry" />
        </mxCell>
        <mxCell id="oKk2NrzfjaoOSDjvsEfk-67" value="overtime" style="swimlane;fontStyle=0;align=center;verticalAlign=top;childLayout=stackLayout;horizontal=1;startSize=26;horizontalStack=0;resizeParent=1;resizeLast=0;collapsible=1;marginBottom=0;rounded=0;shadow=0;strokeWidth=1;" parent="WIyWlLk6GJQsqaUBKTNV-1" vertex="1">
          <mxGeometry x="600" y="256" width="160" height="216" as="geometry">
            <mxRectangle x="340" y="380" width="170" height="26" as="alternateBounds" />
          </mxGeometry>
        </mxCell>
        <mxCell id="oKk2NrzfjaoOSDjvsEfk-68" value="nik (PK)" style="text;align=left;verticalAlign=top;spacingLeft=4;spacingRight=4;overflow=hidden;rotatable=0;points=[[0,0.5],[1,0.5]];portConstraint=eastwest;" parent="oKk2NrzfjaoOSDjvsEfk-67" vertex="1">
          <mxGeometry y="26" width="160" height="26" as="geometry" />
        </mxCell>
        <mxCell id="oKk2NrzfjaoOSDjvsEfk-69" value="name" style="text;align=left;verticalAlign=top;spacingLeft=4;spacingRight=4;overflow=hidden;rotatable=0;points=[[0,0.5],[1,0.5]];portConstraint=eastwest;" parent="oKk2NrzfjaoOSDjvsEfk-67" vertex="1">
          <mxGeometry y="52" width="160" height="26" as="geometry" />
        </mxCell>
        <mxCell id="oKk2NrzfjaoOSDjvsEfk-70" value="date (FK)" style="text;align=left;verticalAlign=top;spacingLeft=4;spacingRight=4;overflow=hidden;rotatable=0;points=[[0,0.5],[1,0.5]];portConstraint=eastwest;" parent="oKk2NrzfjaoOSDjvsEfk-67" vertex="1">
          <mxGeometry y="78" width="160" height="26" as="geometry" />
        </mxCell>
        <mxCell id="oKk2NrzfjaoOSDjvsEfk-71" value="clock_in" style="text;align=left;verticalAlign=top;spacingLeft=4;spacingRight=4;overflow=hidden;rotatable=0;points=[[0,0.5],[1,0.5]];portConstraint=eastwest;" parent="oKk2NrzfjaoOSDjvsEfk-67" vertex="1">
          <mxGeometry y="104" width="160" height="26" as="geometry" />
        </mxCell>
        <mxCell id="oKk2NrzfjaoOSDjvsEfk-72" value="clock_out" style="text;align=left;verticalAlign=top;spacingLeft=4;spacingRight=4;overflow=hidden;rotatable=0;points=[[0,0.5],[1,0.5]];portConstraint=eastwest;" parent="oKk2NrzfjaoOSDjvsEfk-67" vertex="1">
          <mxGeometry y="130" width="160" height="26" as="geometry" />
        </mxCell>
        <mxCell id="oKk2NrzfjaoOSDjvsEfk-73" value="convertion_hour" style="text;align=left;verticalAlign=top;spacingLeft=4;spacingRight=4;overflow=hidden;rotatable=0;points=[[0,0.5],[1,0.5]];portConstraint=eastwest;" parent="oKk2NrzfjaoOSDjvsEfk-67" vertex="1">
          <mxGeometry y="156" width="160" height="26" as="geometry" />
        </mxCell>
        <mxCell id="oKk2NrzfjaoOSDjvsEfk-75" value="activity" style="text;align=left;verticalAlign=top;spacingLeft=4;spacingRight=4;overflow=hidden;rotatable=0;points=[[0,0.5],[1,0.5]];portConstraint=eastwest;" parent="oKk2NrzfjaoOSDjvsEfk-67" vertex="1">
          <mxGeometry y="182" width="160" height="26" as="geometry" />
        </mxCell>
        <mxCell id="oKk2NrzfjaoOSDjvsEfk-74" value="" style="line;html=1;strokeWidth=1;align=left;verticalAlign=middle;spacingTop=-1;spacingLeft=3;spacingRight=3;rotatable=0;labelPosition=right;points=[];portConstraint=eastwest;" parent="oKk2NrzfjaoOSDjvsEfk-67" vertex="1">
          <mxGeometry y="208" width="160" height="8" as="geometry" />
        </mxCell>
        <mxCell id="oKk2NrzfjaoOSDjvsEfk-76" value="user_login" style="swimlane;fontStyle=0;align=center;verticalAlign=top;childLayout=stackLayout;horizontal=1;startSize=26;horizontalStack=0;resizeParent=1;resizeLast=0;collapsible=1;marginBottom=0;rounded=0;shadow=0;strokeWidth=1;" parent="WIyWlLk6GJQsqaUBKTNV-1" vertex="1">
          <mxGeometry x="600" y="950" width="160" height="180" as="geometry">
            <mxRectangle x="340" y="380" width="170" height="26" as="alternateBounds" />
          </mxGeometry>
        </mxCell>
        <mxCell id="oKk2NrzfjaoOSDjvsEfk-77" value="username (PK)" style="text;align=left;verticalAlign=top;spacingLeft=4;spacingRight=4;overflow=hidden;rotatable=0;points=[[0,0.5],[1,0.5]];portConstraint=eastwest;" parent="oKk2NrzfjaoOSDjvsEfk-76" vertex="1">
          <mxGeometry y="26" width="160" height="26" as="geometry" />
        </mxCell>
        <mxCell id="oKk2NrzfjaoOSDjvsEfk-78" value="name" style="text;align=left;verticalAlign=top;spacingLeft=4;spacingRight=4;overflow=hidden;rotatable=0;points=[[0,0.5],[1,0.5]];portConstraint=eastwest;" parent="oKk2NrzfjaoOSDjvsEfk-76" vertex="1">
          <mxGeometry y="52" width="160" height="26" as="geometry" />
        </mxCell>
        <mxCell id="oKk2NrzfjaoOSDjvsEfk-79" value="level" style="text;align=left;verticalAlign=top;spacingLeft=4;spacingRight=4;overflow=hidden;rotatable=0;points=[[0,0.5],[1,0.5]];portConstraint=eastwest;" parent="oKk2NrzfjaoOSDjvsEfk-76" vertex="1">
          <mxGeometry y="78" width="160" height="26" as="geometry" />
        </mxCell>
        <mxCell id="oKk2NrzfjaoOSDjvsEfk-80" value="password" style="text;align=left;verticalAlign=top;spacingLeft=4;spacingRight=4;overflow=hidden;rotatable=0;points=[[0,0.5],[1,0.5]];portConstraint=eastwest;" parent="oKk2NrzfjaoOSDjvsEfk-76" vertex="1">
          <mxGeometry y="104" width="160" height="26" as="geometry" />
        </mxCell>
        <mxCell id="oKk2NrzfjaoOSDjvsEfk-81" value="status" style="text;align=left;verticalAlign=top;spacingLeft=4;spacingRight=4;overflow=hidden;rotatable=0;points=[[0,0.5],[1,0.5]];portConstraint=eastwest;" parent="oKk2NrzfjaoOSDjvsEfk-76" vertex="1">
          <mxGeometry y="130" width="160" height="26" as="geometry" />
        </mxCell>
        <mxCell id="oKk2NrzfjaoOSDjvsEfk-82" value="" style="line;html=1;strokeWidth=1;align=left;verticalAlign=middle;spacingTop=-1;spacingLeft=3;spacingRight=3;rotatable=0;labelPosition=right;points=[];portConstraint=eastwest;" parent="oKk2NrzfjaoOSDjvsEfk-76" vertex="1">
          <mxGeometry y="156" width="160" height="8" as="geometry" />
        </mxCell>
        <mxCell id="oKk2NrzfjaoOSDjvsEfk-83" style="edgeStyle=orthogonalEdgeStyle;rounded=0;orthogonalLoop=1;jettySize=auto;html=1;exitX=1;exitY=0.5;exitDx=0;exitDy=0;entryX=0;entryY=0.5;entryDx=0;entryDy=0;" parent="WIyWlLk6GJQsqaUBKTNV-1" source="zkfFHV4jXpPFQw0GAbJ--7" target="oKk2NrzfjaoOSDjvsEfk-2" edge="1">
          <mxGeometry relative="1" as="geometry" />
        </mxCell>
        <mxCell id="oKk2NrzfjaoOSDjvsEfk-84" style="edgeStyle=orthogonalEdgeStyle;rounded=0;orthogonalLoop=1;jettySize=auto;html=1;exitX=1;exitY=0.5;exitDx=0;exitDy=0;entryX=1.001;entryY=0.874;entryDx=0;entryDy=0;entryPerimeter=0;" parent="WIyWlLk6GJQsqaUBKTNV-1" source="oKk2NrzfjaoOSDjvsEfk-41" target="oKk2NrzfjaoOSDjvsEfk-39" edge="1">
          <mxGeometry relative="1" as="geometry" />
        </mxCell>
        <mxCell id="oKk2NrzfjaoOSDjvsEfk-86" style="edgeStyle=orthogonalEdgeStyle;rounded=0;orthogonalLoop=1;jettySize=auto;html=1;exitX=1;exitY=0.5;exitDx=0;exitDy=0;entryX=0;entryY=0.5;entryDx=0;entryDy=0;" parent="WIyWlLk6GJQsqaUBKTNV-1" source="oKk2NrzfjaoOSDjvsEfk-60" target="oKk2NrzfjaoOSDjvsEfk-6" edge="1">
          <mxGeometry relative="1" as="geometry">
            <Array as="points">
              <mxPoint x="290" y="759" />
              <mxPoint x="290" y="157" />
            </Array>
          </mxGeometry>
        </mxCell>
        <mxCell id="oKk2NrzfjaoOSDjvsEfk-87" style="edgeStyle=orthogonalEdgeStyle;rounded=0;orthogonalLoop=1;jettySize=auto;html=1;exitX=0;exitY=0.5;exitDx=0;exitDy=0;entryX=1;entryY=0.5;entryDx=0;entryDy=0;" parent="WIyWlLk6GJQsqaUBKTNV-1" source="zkfFHV4jXpPFQw0GAbJ--14" target="oKk2NrzfjaoOSDjvsEfk-2" edge="1">
          <mxGeometry relative="1" as="geometry" />
        </mxCell>
        <mxCell id="oKk2NrzfjaoOSDjvsEfk-88" style="edgeStyle=orthogonalEdgeStyle;rounded=0;orthogonalLoop=1;jettySize=auto;html=1;exitX=0;exitY=0.5;exitDx=0;exitDy=0;" parent="WIyWlLk6GJQsqaUBKTNV-1" source="oKk2NrzfjaoOSDjvsEfk-68" target="oKk2NrzfjaoOSDjvsEfk-2" edge="1">
          <mxGeometry relative="1" as="geometry">
            <mxPoint x="560" y="180" as="targetPoint" />
          </mxGeometry>
        </mxCell>
        <mxCell id="oKk2NrzfjaoOSDjvsEfk-89" style="edgeStyle=orthogonalEdgeStyle;rounded=0;orthogonalLoop=1;jettySize=auto;html=1;exitX=0;exitY=0.5;exitDx=0;exitDy=0;entryX=1;entryY=0.5;entryDx=0;entryDy=0;" parent="WIyWlLk6GJQsqaUBKTNV-1" source="oKk2NrzfjaoOSDjvsEfk-77" target="oKk2NrzfjaoOSDjvsEfk-12" edge="1">
          <mxGeometry relative="1" as="geometry">
            <Array as="points">
              <mxPoint x="530" y="989" />
              <mxPoint x="530" y="391" />
            </Array>
          </mxGeometry>
        </mxCell>
        <mxCell id="oKk2NrzfjaoOSDjvsEfk-85" style="edgeStyle=orthogonalEdgeStyle;rounded=0;orthogonalLoop=1;jettySize=auto;html=1;exitX=0;exitY=0.5;exitDx=0;exitDy=0;entryX=1;entryY=0.25;entryDx=0;entryDy=0;" parent="WIyWlLk6GJQsqaUBKTNV-1" source="oKk2NrzfjaoOSDjvsEfk-3" target="oKk2NrzfjaoOSDjvsEfk-51" edge="1">
          <mxGeometry relative="1" as="geometry" />
        </mxCell>
        <mxCell id="Ox8O2sE2HDYJjIZuFXVz-0" value="cuti" style="swimlane;fontStyle=0;align=center;verticalAlign=top;childLayout=stackLayout;horizontal=1;startSize=26;horizontalStack=0;resizeParent=1;resizeLast=0;collapsible=1;marginBottom=0;rounded=0;shadow=0;strokeWidth=1;" parent="WIyWlLk6GJQsqaUBKTNV-1" vertex="1">
          <mxGeometry x="600" y="490" width="160" height="216" as="geometry">
            <mxRectangle x="340" y="380" width="170" height="26" as="alternateBounds" />
          </mxGeometry>
        </mxCell>
        <mxCell id="Ox8O2sE2HDYJjIZuFXVz-1" value="ID (PK)" style="text;align=left;verticalAlign=top;spacingLeft=4;spacingRight=4;overflow=hidden;rotatable=0;points=[[0,0.5],[1,0.5]];portConstraint=eastwest;" parent="Ox8O2sE2HDYJjIZuFXVz-0" vertex="1">
          <mxGeometry y="26" width="160" height="26" as="geometry" />
        </mxCell>
        <mxCell id="Ox8O2sE2HDYJjIZuFXVz-2" value="NIK (FK)" style="text;align=left;verticalAlign=top;spacingLeft=4;spacingRight=4;overflow=hidden;rotatable=0;points=[[0,0.5],[1,0.5]];portConstraint=eastwest;" parent="Ox8O2sE2HDYJjIZuFXVz-0" vertex="1">
          <mxGeometry y="52" width="160" height="26" as="geometry" />
        </mxCell>
        <mxCell id="Ox8O2sE2HDYJjIZuFXVz-3" value="date (FK)" style="text;align=left;verticalAlign=top;spacingLeft=4;spacingRight=4;overflow=hidden;rotatable=0;points=[[0,0.5],[1,0.5]];portConstraint=eastwest;" parent="Ox8O2sE2HDYJjIZuFXVz-0" vertex="1">
          <mxGeometry y="78" width="160" height="26" as="geometry" />
        </mxCell>
        <mxCell id="Ox8O2sE2HDYJjIZuFXVz-4" value="activity" style="text;align=left;verticalAlign=top;spacingLeft=4;spacingRight=4;overflow=hidden;rotatable=0;points=[[0,0.5],[1,0.5]];portConstraint=eastwest;" parent="Ox8O2sE2HDYJjIZuFXVz-0" vertex="1">
          <mxGeometry y="104" width="160" height="26" as="geometry" />
        </mxCell>
        <mxCell id="Ox8O2sE2HDYJjIZuFXVz-5" value="remarks" style="text;align=left;verticalAlign=top;spacingLeft=4;spacingRight=4;overflow=hidden;rotatable=0;points=[[0,0.5],[1,0.5]];portConstraint=eastwest;" parent="Ox8O2sE2HDYJjIZuFXVz-0" vertex="1">
          <mxGeometry y="130" width="160" height="26" as="geometry" />
        </mxCell>
        <mxCell id="Ox8O2sE2HDYJjIZuFXVz-6" value="status" style="text;align=left;verticalAlign=top;spacingLeft=4;spacingRight=4;overflow=hidden;rotatable=0;points=[[0,0.5],[1,0.5]];portConstraint=eastwest;" parent="Ox8O2sE2HDYJjIZuFXVz-0" vertex="1">
          <mxGeometry y="156" width="160" height="26" as="geometry" />
        </mxCell>
        <mxCell id="Ox8O2sE2HDYJjIZuFXVz-7" value="adddate" style="text;align=left;verticalAlign=top;spacingLeft=4;spacingRight=4;overflow=hidden;rotatable=0;points=[[0,0.5],[1,0.5]];portConstraint=eastwest;" parent="Ox8O2sE2HDYJjIZuFXVz-0" vertex="1">
          <mxGeometry y="182" width="160" height="26" as="geometry" />
        </mxCell>
        <mxCell id="Ox8O2sE2HDYJjIZuFXVz-8" value="" style="line;html=1;strokeWidth=1;align=left;verticalAlign=middle;spacingTop=-1;spacingLeft=3;spacingRight=3;rotatable=0;labelPosition=right;points=[];portConstraint=eastwest;" parent="Ox8O2sE2HDYJjIZuFXVz-0" vertex="1">
          <mxGeometry y="208" width="160" height="8" as="geometry" />
        </mxCell>
        <mxCell id="Ox8O2sE2HDYJjIZuFXVz-9" style="edgeStyle=orthogonalEdgeStyle;rounded=0;orthogonalLoop=1;jettySize=auto;html=1;exitX=0;exitY=0.5;exitDx=0;exitDy=0;entryX=1;entryY=0.5;entryDx=0;entryDy=0;" parent="WIyWlLk6GJQsqaUBKTNV-1" source="Ox8O2sE2HDYJjIZuFXVz-2" target="oKk2NrzfjaoOSDjvsEfk-2" edge="1">
          <mxGeometry relative="1" as="geometry" />
        </mxCell>
        <mxCell id="wwqKFAAxIAx8ywI5_Tf--0" value="izin_sakit" style="swimlane;fontStyle=0;align=center;verticalAlign=top;childLayout=stackLayout;horizontal=1;startSize=26;horizontalStack=0;resizeParent=1;resizeLast=0;collapsible=1;marginBottom=0;rounded=0;shadow=0;strokeWidth=1;" parent="WIyWlLk6GJQsqaUBKTNV-1" vertex="1">
          <mxGeometry x="600" y="720" width="160" height="216" as="geometry">
            <mxRectangle x="340" y="380" width="170" height="26" as="alternateBounds" />
          </mxGeometry>
        </mxCell>
        <mxCell id="wwqKFAAxIAx8ywI5_Tf--1" value="ID (PK)" style="text;align=left;verticalAlign=top;spacingLeft=4;spacingRight=4;overflow=hidden;rotatable=0;points=[[0,0.5],[1,0.5]];portConstraint=eastwest;" parent="wwqKFAAxIAx8ywI5_Tf--0" vertex="1">
          <mxGeometry y="26" width="160" height="26" as="geometry" />
        </mxCell>
        <mxCell id="wwqKFAAxIAx8ywI5_Tf--2" value="NIK (FK)" style="text;align=left;verticalAlign=top;spacingLeft=4;spacingRight=4;overflow=hidden;rotatable=0;points=[[0,0.5],[1,0.5]];portConstraint=eastwest;" parent="wwqKFAAxIAx8ywI5_Tf--0" vertex="1">
          <mxGeometry y="52" width="160" height="26" as="geometry" />
        </mxCell>
        <mxCell id="wwqKFAAxIAx8ywI5_Tf--3" value="date (FK)" style="text;align=left;verticalAlign=top;spacingLeft=4;spacingRight=4;overflow=hidden;rotatable=0;points=[[0,0.5],[1,0.5]];portConstraint=eastwest;" parent="wwqKFAAxIAx8ywI5_Tf--0" vertex="1">
          <mxGeometry y="78" width="160" height="26" as="geometry" />
        </mxCell>
        <mxCell id="wwqKFAAxIAx8ywI5_Tf--4" value="activity" style="text;align=left;verticalAlign=top;spacingLeft=4;spacingRight=4;overflow=hidden;rotatable=0;points=[[0,0.5],[1,0.5]];portConstraint=eastwest;" parent="wwqKFAAxIAx8ywI5_Tf--0" vertex="1">
          <mxGeometry y="104" width="160" height="26" as="geometry" />
        </mxCell>
        <mxCell id="wwqKFAAxIAx8ywI5_Tf--5" value="remarks" style="text;align=left;verticalAlign=top;spacingLeft=4;spacingRight=4;overflow=hidden;rotatable=0;points=[[0,0.5],[1,0.5]];portConstraint=eastwest;" parent="wwqKFAAxIAx8ywI5_Tf--0" vertex="1">
          <mxGeometry y="130" width="160" height="26" as="geometry" />
        </mxCell>
        <mxCell id="wwqKFAAxIAx8ywI5_Tf--6" value="status" style="text;align=left;verticalAlign=top;spacingLeft=4;spacingRight=4;overflow=hidden;rotatable=0;points=[[0,0.5],[1,0.5]];portConstraint=eastwest;" parent="wwqKFAAxIAx8ywI5_Tf--0" vertex="1">
          <mxGeometry y="156" width="160" height="26" as="geometry" />
        </mxCell>
        <mxCell id="wwqKFAAxIAx8ywI5_Tf--7" value="adddate" style="text;align=left;verticalAlign=top;spacingLeft=4;spacingRight=4;overflow=hidden;rotatable=0;points=[[0,0.5],[1,0.5]];portConstraint=eastwest;" parent="wwqKFAAxIAx8ywI5_Tf--0" vertex="1">
          <mxGeometry y="182" width="160" height="26" as="geometry" />
        </mxCell>
        <mxCell id="wwqKFAAxIAx8ywI5_Tf--8" value="" style="line;html=1;strokeWidth=1;align=left;verticalAlign=middle;spacingTop=-1;spacingLeft=3;spacingRight=3;rotatable=0;labelPosition=right;points=[];portConstraint=eastwest;" parent="wwqKFAAxIAx8ywI5_Tf--0" vertex="1">
          <mxGeometry y="208" width="160" height="8" as="geometry" />
        </mxCell>
        <mxCell id="wwqKFAAxIAx8ywI5_Tf--10" style="edgeStyle=orthogonalEdgeStyle;rounded=0;orthogonalLoop=1;jettySize=auto;html=1;exitX=0;exitY=0.5;exitDx=0;exitDy=0;entryX=1;entryY=0.5;entryDx=0;entryDy=0;" parent="WIyWlLk6GJQsqaUBKTNV-1" source="wwqKFAAxIAx8ywI5_Tf--2" target="oKk2NrzfjaoOSDjvsEfk-2" edge="1">
          <mxGeometry relative="1" as="geometry">
            <mxPoint x="495" y="79" as="targetPoint" />
            <Array as="points">
              <mxPoint x="547" y="785" />
              <mxPoint x="547" y="79" />
            </Array>
          </mxGeometry>
        </mxCell>
      </root>
    </mxGraphModel>
  </diagram>
  <diagram id="V-C32Ri9egpSBkJE6UfL" name="Class Diagram">
    <mxGraphModel dx="1422" dy="801" grid="1" gridSize="10" guides="1" tooltips="1" connect="1" arrows="1" fold="1" page="1" pageScale="1" pageWidth="1100" pageHeight="850" math="0" shadow="0">
      <root>
        <mxCell id="2vxm4DMvmGCjCKeFNTNF-0" />
        <mxCell id="2vxm4DMvmGCjCKeFNTNF-1" parent="2vxm4DMvmGCjCKeFNTNF-0" />
        <mxCell id="2vxm4DMvmGCjCKeFNTNF-2" value="employee_bank" style="swimlane;fontStyle=2;align=center;verticalAlign=top;childLayout=stackLayout;horizontal=1;startSize=26;horizontalStack=0;resizeParent=1;resizeLast=0;collapsible=1;marginBottom=0;rounded=0;shadow=0;strokeWidth=1;" vertex="1" parent="2vxm4DMvmGCjCKeFNTNF-1">
          <mxGeometry x="50" y="280" width="160" height="210" as="geometry">
            <mxRectangle x="230" y="140" width="160" height="26" as="alternateBounds" />
          </mxGeometry>
        </mxCell>
        <mxCell id="2vxm4DMvmGCjCKeFNTNF-3" value="*nik" style="text;align=left;verticalAlign=top;spacingLeft=4;spacingRight=4;overflow=hidden;rotatable=0;points=[[0,0.5],[1,0.5]];portConstraint=eastwest;rounded=0;shadow=0;html=0;" vertex="1" parent="2vxm4DMvmGCjCKeFNTNF-2">
          <mxGeometry y="26" width="160" height="26" as="geometry" />
        </mxCell>
        <mxCell id="2vxm4DMvmGCjCKeFNTNF-4" value="name_of_bank" style="text;align=left;verticalAlign=top;spacingLeft=4;spacingRight=4;overflow=hidden;rotatable=0;points=[[0,0.5],[1,0.5]];portConstraint=eastwest;rounded=0;shadow=0;html=0;" vertex="1" parent="2vxm4DMvmGCjCKeFNTNF-2">
          <mxGeometry y="52" width="160" height="26" as="geometry" />
        </mxCell>
        <mxCell id="2vxm4DMvmGCjCKeFNTNF-5" value="bank_account" style="text;align=left;verticalAlign=top;spacingLeft=4;spacingRight=4;overflow=hidden;rotatable=0;points=[[0,0.5],[1,0.5]];portConstraint=eastwest;rounded=0;shadow=0;html=0;" vertex="1" parent="2vxm4DMvmGCjCKeFNTNF-2">
          <mxGeometry y="78" width="160" height="26" as="geometry" />
        </mxCell>
        <mxCell id="2vxm4DMvmGCjCKeFNTNF-6" value="salary" style="text;align=left;verticalAlign=top;spacingLeft=4;spacingRight=4;overflow=hidden;rotatable=0;points=[[0,0.5],[1,0.5]];portConstraint=eastwest;" vertex="1" parent="2vxm4DMvmGCjCKeFNTNF-2">
          <mxGeometry y="104" width="160" height="26" as="geometry" />
        </mxCell>
        <mxCell id="2vxm4DMvmGCjCKeFNTNF-7" value="contract_of_period" style="text;align=left;verticalAlign=top;spacingLeft=4;spacingRight=4;overflow=hidden;rotatable=0;points=[[0,0.5],[1,0.5]];portConstraint=eastwest;" vertex="1" parent="2vxm4DMvmGCjCKeFNTNF-2">
          <mxGeometry y="130" width="160" height="26" as="geometry" />
        </mxCell>
        <mxCell id="2vxm4DMvmGCjCKeFNTNF-8" value="status" style="text;align=left;verticalAlign=top;spacingLeft=4;spacingRight=4;overflow=hidden;rotatable=0;points=[[0,0.5],[1,0.5]];portConstraint=eastwest;" vertex="1" parent="2vxm4DMvmGCjCKeFNTNF-2">
          <mxGeometry y="156" width="160" height="34" as="geometry" />
        </mxCell>
        <mxCell id="2vxm4DMvmGCjCKeFNTNF-9" value="" style="line;html=1;strokeWidth=1;align=left;verticalAlign=middle;spacingTop=-1;spacingLeft=3;spacingRight=3;rotatable=0;labelPosition=right;points=[];portConstraint=eastwest;" vertex="1" parent="2vxm4DMvmGCjCKeFNTNF-2">
          <mxGeometry y="190" width="160" height="8" as="geometry" />
        </mxCell>
        <mxCell id="2vxm4DMvmGCjCKeFNTNF-10" value="employee_status" style="swimlane;fontStyle=0;align=center;verticalAlign=top;childLayout=stackLayout;horizontal=1;startSize=26;horizontalStack=0;resizeParent=1;resizeLast=0;collapsible=1;marginBottom=0;rounded=0;shadow=0;strokeWidth=1;" vertex="1" parent="2vxm4DMvmGCjCKeFNTNF-1">
          <mxGeometry x="50" y="40" width="160" height="200" as="geometry">
            <mxRectangle x="130" y="380" width="160" height="26" as="alternateBounds" />
          </mxGeometry>
        </mxCell>
        <mxCell id="2vxm4DMvmGCjCKeFNTNF-11" value="*nik" style="text;align=left;verticalAlign=top;spacingLeft=4;spacingRight=4;overflow=hidden;rotatable=0;points=[[0,0.5],[1,0.5]];portConstraint=eastwest;" vertex="1" parent="2vxm4DMvmGCjCKeFNTNF-10">
          <mxGeometry y="26" width="160" height="26" as="geometry" />
        </mxCell>
        <mxCell id="2vxm4DMvmGCjCKeFNTNF-12" value="join_date" style="text;align=left;verticalAlign=top;spacingLeft=4;spacingRight=4;overflow=hidden;rotatable=0;points=[[0,0.5],[1,0.5]];portConstraint=eastwest;rounded=0;shadow=0;html=0;" vertex="1" parent="2vxm4DMvmGCjCKeFNTNF-10">
          <mxGeometry y="52" width="160" height="26" as="geometry" />
        </mxCell>
        <mxCell id="2vxm4DMvmGCjCKeFNTNF-13" value="end_date" style="text;align=left;verticalAlign=top;spacingLeft=4;spacingRight=4;overflow=hidden;rotatable=0;points=[[0,0.5],[1,0.5]];portConstraint=eastwest;rounded=0;shadow=0;html=0;" vertex="1" parent="2vxm4DMvmGCjCKeFNTNF-10">
          <mxGeometry y="78" width="160" height="26" as="geometry" />
        </mxCell>
        <mxCell id="2vxm4DMvmGCjCKeFNTNF-14" value="inactive_date" style="text;align=left;verticalAlign=top;spacingLeft=4;spacingRight=4;overflow=hidden;rotatable=0;points=[[0,0.5],[1,0.5]];portConstraint=eastwest;rounded=0;shadow=0;html=0;" vertex="1" parent="2vxm4DMvmGCjCKeFNTNF-10">
          <mxGeometry y="104" width="160" height="26" as="geometry" />
        </mxCell>
        <mxCell id="2vxm4DMvmGCjCKeFNTNF-15" value="inactive_reason" style="text;align=left;verticalAlign=top;spacingLeft=4;spacingRight=4;overflow=hidden;rotatable=0;points=[[0,0.5],[1,0.5]];portConstraint=eastwest;rounded=0;shadow=0;html=0;" vertex="1" parent="2vxm4DMvmGCjCKeFNTNF-10">
          <mxGeometry y="130" width="160" height="26" as="geometry" />
        </mxCell>
        <mxCell id="2vxm4DMvmGCjCKeFNTNF-16" value="contract_of_period" style="text;align=left;verticalAlign=top;spacingLeft=4;spacingRight=4;overflow=hidden;rotatable=0;points=[[0,0.5],[1,0.5]];portConstraint=eastwest;" vertex="1" parent="2vxm4DMvmGCjCKeFNTNF-10">
          <mxGeometry y="156" width="160" height="26" as="geometry" />
        </mxCell>
        <mxCell id="2vxm4DMvmGCjCKeFNTNF-17" value="" style="line;html=1;strokeWidth=1;align=left;verticalAlign=middle;spacingTop=-1;spacingLeft=3;spacingRight=3;rotatable=0;labelPosition=right;points=[];portConstraint=eastwest;" vertex="1" parent="2vxm4DMvmGCjCKeFNTNF-10">
          <mxGeometry y="182" width="160" height="8" as="geometry" />
        </mxCell>
        <mxCell id="2vxm4DMvmGCjCKeFNTNF-18" value="absensi" style="swimlane;fontStyle=0;align=center;verticalAlign=top;childLayout=stackLayout;horizontal=1;startSize=26;horizontalStack=0;resizeParent=1;resizeLast=0;collapsible=1;marginBottom=0;rounded=0;shadow=0;strokeWidth=1;" vertex="1" parent="2vxm4DMvmGCjCKeFNTNF-1">
          <mxGeometry x="600" y="40" width="160" height="200" as="geometry">
            <mxRectangle x="340" y="380" width="170" height="26" as="alternateBounds" />
          </mxGeometry>
        </mxCell>
        <mxCell id="2vxm4DMvmGCjCKeFNTNF-19" value="*nik" style="text;align=left;verticalAlign=top;spacingLeft=4;spacingRight=4;overflow=hidden;rotatable=0;points=[[0,0.5],[1,0.5]];portConstraint=eastwest;" vertex="1" parent="2vxm4DMvmGCjCKeFNTNF-18">
          <mxGeometry y="26" width="160" height="26" as="geometry" />
        </mxCell>
        <mxCell id="2vxm4DMvmGCjCKeFNTNF-20" value="**date" style="text;align=left;verticalAlign=top;spacingLeft=4;spacingRight=4;overflow=hidden;rotatable=0;points=[[0,0.5],[1,0.5]];portConstraint=eastwest;" vertex="1" parent="2vxm4DMvmGCjCKeFNTNF-18">
          <mxGeometry y="52" width="160" height="26" as="geometry" />
        </mxCell>
        <mxCell id="2vxm4DMvmGCjCKeFNTNF-21" value="time" style="text;align=left;verticalAlign=top;spacingLeft=4;spacingRight=4;overflow=hidden;rotatable=0;points=[[0,0.5],[1,0.5]];portConstraint=eastwest;" vertex="1" parent="2vxm4DMvmGCjCKeFNTNF-18">
          <mxGeometry y="78" width="160" height="26" as="geometry" />
        </mxCell>
        <mxCell id="2vxm4DMvmGCjCKeFNTNF-22" value="status&#xa;" style="text;align=left;verticalAlign=top;spacingLeft=4;spacingRight=4;overflow=hidden;rotatable=0;points=[[0,0.5],[1,0.5]];portConstraint=eastwest;" vertex="1" parent="2vxm4DMvmGCjCKeFNTNF-18">
          <mxGeometry y="104" width="160" height="26" as="geometry" />
        </mxCell>
        <mxCell id="2vxm4DMvmGCjCKeFNTNF-23" value="activity" style="text;align=left;verticalAlign=top;spacingLeft=4;spacingRight=4;overflow=hidden;rotatable=0;points=[[0,0.5],[1,0.5]];portConstraint=eastwest;" vertex="1" parent="2vxm4DMvmGCjCKeFNTNF-18">
          <mxGeometry y="130" width="160" height="26" as="geometry" />
        </mxCell>
        <mxCell id="2vxm4DMvmGCjCKeFNTNF-24" value="remarks" style="text;align=left;verticalAlign=top;spacingLeft=4;spacingRight=4;overflow=hidden;rotatable=0;points=[[0,0.5],[1,0.5]];portConstraint=eastwest;" vertex="1" parent="2vxm4DMvmGCjCKeFNTNF-18">
          <mxGeometry y="156" width="160" height="26" as="geometry" />
        </mxCell>
        <mxCell id="2vxm4DMvmGCjCKeFNTNF-25" value="" style="line;html=1;strokeWidth=1;align=left;verticalAlign=middle;spacingTop=-1;spacingLeft=3;spacingRight=3;rotatable=0;labelPosition=right;points=[];portConstraint=eastwest;" vertex="1" parent="2vxm4DMvmGCjCKeFNTNF-18">
          <mxGeometry y="182" width="160" height="8" as="geometry" />
        </mxCell>
        <mxCell id="2vxm4DMvmGCjCKeFNTNF-26" value="employee" style="swimlane;fontStyle=2;align=center;verticalAlign=top;childLayout=stackLayout;horizontal=1;startSize=26;horizontalStack=0;resizeParent=1;resizeLast=0;collapsible=1;marginBottom=0;rounded=0;shadow=0;strokeWidth=1;" vertex="1" parent="2vxm4DMvmGCjCKeFNTNF-1">
          <mxGeometry x="334" y="40" width="160" height="950" as="geometry">
            <mxRectangle x="230" y="140" width="160" height="26" as="alternateBounds" />
          </mxGeometry>
        </mxCell>
        <mxCell id="2vxm4DMvmGCjCKeFNTNF-27" value="*nik" style="text;align=left;verticalAlign=top;spacingLeft=4;spacingRight=4;overflow=hidden;rotatable=0;points=[[0,0.5],[1,0.5]];portConstraint=eastwest;rounded=0;shadow=0;html=0;" vertex="1" parent="2vxm4DMvmGCjCKeFNTNF-26">
          <mxGeometry y="26" width="160" height="26" as="geometry" />
        </mxCell>
        <mxCell id="2vxm4DMvmGCjCKeFNTNF-28" value="name" style="text;align=left;verticalAlign=top;spacingLeft=4;spacingRight=4;overflow=hidden;rotatable=0;points=[[0,0.5],[1,0.5]];portConstraint=eastwest;rounded=0;shadow=0;html=0;" vertex="1" parent="2vxm4DMvmGCjCKeFNTNF-26">
          <mxGeometry y="52" width="160" height="26" as="geometry" />
        </mxCell>
        <mxCell id="2vxm4DMvmGCjCKeFNTNF-29" value="**id_client" style="text;align=left;verticalAlign=top;spacingLeft=4;spacingRight=4;overflow=hidden;rotatable=0;points=[[0,0.5],[1,0.5]];portConstraint=eastwest;rounded=0;shadow=0;html=0;" vertex="1" parent="2vxm4DMvmGCjCKeFNTNF-26">
          <mxGeometry y="78" width="160" height="26" as="geometry" />
        </mxCell>
        <mxCell id="2vxm4DMvmGCjCKeFNTNF-30" value="**position" style="text;align=left;verticalAlign=top;spacingLeft=4;spacingRight=4;overflow=hidden;rotatable=0;points=[[0,0.5],[1,0.5]];portConstraint=eastwest;rounded=0;shadow=0;html=0;" vertex="1" parent="2vxm4DMvmGCjCKeFNTNF-26">
          <mxGeometry y="104" width="160" height="26" as="geometry" />
        </mxCell>
        <mxCell id="2vxm4DMvmGCjCKeFNTNF-31" value="birth_date" style="text;align=left;verticalAlign=top;spacingLeft=4;spacingRight=4;overflow=hidden;rotatable=0;points=[[0,0.5],[1,0.5]];portConstraint=eastwest;rounded=0;shadow=0;html=0;" vertex="1" parent="2vxm4DMvmGCjCKeFNTNF-26">
          <mxGeometry y="130" width="160" height="26" as="geometry" />
        </mxCell>
        <mxCell id="2vxm4DMvmGCjCKeFNTNF-32" value="birth_place" style="text;align=left;verticalAlign=top;spacingLeft=4;spacingRight=4;overflow=hidden;rotatable=0;points=[[0,0.5],[1,0.5]];portConstraint=eastwest;rounded=0;shadow=0;html=0;" vertex="1" parent="2vxm4DMvmGCjCKeFNTNF-26">
          <mxGeometry y="156" width="160" height="26" as="geometry" />
        </mxCell>
        <mxCell id="2vxm4DMvmGCjCKeFNTNF-33" value="gender" style="text;align=left;verticalAlign=top;spacingLeft=4;spacingRight=4;overflow=hidden;rotatable=0;points=[[0,0.5],[1,0.5]];portConstraint=eastwest;rounded=0;shadow=0;html=0;" vertex="1" parent="2vxm4DMvmGCjCKeFNTNF-26">
          <mxGeometry y="182" width="160" height="26" as="geometry" />
        </mxCell>
        <mxCell id="2vxm4DMvmGCjCKeFNTNF-34" value="blood_type" style="text;align=left;verticalAlign=top;spacingLeft=4;spacingRight=4;overflow=hidden;rotatable=0;points=[[0,0.5],[1,0.5]];portConstraint=eastwest;rounded=0;shadow=0;html=0;" vertex="1" parent="2vxm4DMvmGCjCKeFNTNF-26">
          <mxGeometry y="208" width="160" height="26" as="geometry" />
        </mxCell>
        <mxCell id="2vxm4DMvmGCjCKeFNTNF-35" value="marital_status" style="text;align=left;verticalAlign=top;spacingLeft=4;spacingRight=4;overflow=hidden;rotatable=0;points=[[0,0.5],[1,0.5]];portConstraint=eastwest;rounded=0;shadow=0;html=0;" vertex="1" parent="2vxm4DMvmGCjCKeFNTNF-26">
          <mxGeometry y="234" width="160" height="26" as="geometry" />
        </mxCell>
        <mxCell id="2vxm4DMvmGCjCKeFNTNF-36" value="religion" style="text;align=left;verticalAlign=top;spacingLeft=4;spacingRight=4;overflow=hidden;rotatable=0;points=[[0,0.5],[1,0.5]];portConstraint=eastwest;rounded=0;shadow=0;html=0;" vertex="1" parent="2vxm4DMvmGCjCKeFNTNF-26">
          <mxGeometry y="260" width="160" height="26" as="geometry" />
        </mxCell>
        <mxCell id="2vxm4DMvmGCjCKeFNTNF-37" value="cityzenship" style="text;align=left;verticalAlign=top;spacingLeft=4;spacingRight=4;overflow=hidden;rotatable=0;points=[[0,0.5],[1,0.5]];portConstraint=eastwest;rounded=0;shadow=0;html=0;" vertex="1" parent="2vxm4DMvmGCjCKeFNTNF-26">
          <mxGeometry y="286" width="160" height="26" as="geometry" />
        </mxCell>
        <mxCell id="2vxm4DMvmGCjCKeFNTNF-38" value="phone" style="text;align=left;verticalAlign=top;spacingLeft=4;spacingRight=4;overflow=hidden;rotatable=0;points=[[0,0.5],[1,0.5]];portConstraint=eastwest;rounded=0;shadow=0;html=0;" vertex="1" parent="2vxm4DMvmGCjCKeFNTNF-26">
          <mxGeometry y="312" width="160" height="26" as="geometry" />
        </mxCell>
        <mxCell id="2vxm4DMvmGCjCKeFNTNF-39" value="email" style="text;align=left;verticalAlign=top;spacingLeft=4;spacingRight=4;overflow=hidden;rotatable=0;points=[[0,0.5],[1,0.5]];portConstraint=eastwest;rounded=0;shadow=0;html=0;" vertex="1" parent="2vxm4DMvmGCjCKeFNTNF-26">
          <mxGeometry y="338" width="160" height="26" as="geometry" />
        </mxCell>
        <mxCell id="2vxm4DMvmGCjCKeFNTNF-40" value="id_type" style="text;align=left;verticalAlign=top;spacingLeft=4;spacingRight=4;overflow=hidden;rotatable=0;points=[[0,0.5],[1,0.5]];portConstraint=eastwest;rounded=0;shadow=0;html=0;" vertex="1" parent="2vxm4DMvmGCjCKeFNTNF-26">
          <mxGeometry y="364" width="160" height="26" as="geometry" />
        </mxCell>
        <mxCell id="2vxm4DMvmGCjCKeFNTNF-41" value="&amp;nbsp;id_number" style="text;whiteSpace=wrap;html=1;" vertex="1" parent="2vxm4DMvmGCjCKeFNTNF-26">
          <mxGeometry y="390" width="160" height="30" as="geometry" />
        </mxCell>
        <mxCell id="2vxm4DMvmGCjCKeFNTNF-42" value="&amp;nbsp;card_expired" style="text;whiteSpace=wrap;html=1;" vertex="1" parent="2vxm4DMvmGCjCKeFNTNF-26">
          <mxGeometry y="420" width="160" height="30" as="geometry" />
        </mxCell>
        <mxCell id="2vxm4DMvmGCjCKeFNTNF-43" value="&amp;nbsp;street" style="text;whiteSpace=wrap;html=1;" vertex="1" parent="2vxm4DMvmGCjCKeFNTNF-26">
          <mxGeometry y="450" width="160" height="30" as="geometry" />
        </mxCell>
        <mxCell id="2vxm4DMvmGCjCKeFNTNF-44" value="&amp;nbsp;city" style="text;whiteSpace=wrap;html=1;" vertex="1" parent="2vxm4DMvmGCjCKeFNTNF-26">
          <mxGeometry y="480" width="160" height="30" as="geometry" />
        </mxCell>
        <mxCell id="2vxm4DMvmGCjCKeFNTNF-45" value="&amp;nbsp;country" style="text;whiteSpace=wrap;html=1;" vertex="1" parent="2vxm4DMvmGCjCKeFNTNF-26">
          <mxGeometry y="510" width="160" height="30" as="geometry" />
        </mxCell>
        <mxCell id="2vxm4DMvmGCjCKeFNTNF-46" value="&amp;nbsp;state" style="text;whiteSpace=wrap;html=1;" vertex="1" parent="2vxm4DMvmGCjCKeFNTNF-26">
          <mxGeometry y="540" width="160" height="30" as="geometry" />
        </mxCell>
        <mxCell id="2vxm4DMvmGCjCKeFNTNF-47" value="&amp;nbsp;original_street" style="text;whiteSpace=wrap;html=1;" vertex="1" parent="2vxm4DMvmGCjCKeFNTNF-26">
          <mxGeometry y="570" width="160" height="30" as="geometry" />
        </mxCell>
        <mxCell id="2vxm4DMvmGCjCKeFNTNF-48" value="&amp;nbsp;original_city" style="text;whiteSpace=wrap;html=1;" vertex="1" parent="2vxm4DMvmGCjCKeFNTNF-26">
          <mxGeometry y="600" width="160" height="30" as="geometry" />
        </mxCell>
        <mxCell id="2vxm4DMvmGCjCKeFNTNF-49" value="&amp;nbsp;npwp" style="text;whiteSpace=wrap;html=1;" vertex="1" parent="2vxm4DMvmGCjCKeFNTNF-26">
          <mxGeometry y="630" width="160" height="30" as="geometry" />
        </mxCell>
        <mxCell id="2vxm4DMvmGCjCKeFNTNF-50" value="&amp;nbsp;ptkp_code" style="text;whiteSpace=wrap;html=1;" vertex="1" parent="2vxm4DMvmGCjCKeFNTNF-26">
          <mxGeometry y="660" width="160" height="30" as="geometry" />
        </mxCell>
        <mxCell id="2vxm4DMvmGCjCKeFNTNF-51" value="&amp;nbsp;ptkp_name" style="text;whiteSpace=wrap;html=1;" vertex="1" parent="2vxm4DMvmGCjCKeFNTNF-26">
          <mxGeometry y="690" width="160" height="30" as="geometry" />
        </mxCell>
        <mxCell id="2vxm4DMvmGCjCKeFNTNF-52" value="&amp;nbsp;allowance" style="text;whiteSpace=wrap;html=1;" vertex="1" parent="2vxm4DMvmGCjCKeFNTNF-26">
          <mxGeometry y="720" width="160" height="30" as="geometry" />
        </mxCell>
        <mxCell id="2vxm4DMvmGCjCKeFNTNF-53" value="&amp;nbsp;overtime_allowance" style="text;whiteSpace=wrap;html=1;" vertex="1" parent="2vxm4DMvmGCjCKeFNTNF-26">
          <mxGeometry y="750" width="160" height="30" as="geometry" />
        </mxCell>
        <mxCell id="2vxm4DMvmGCjCKeFNTNF-54" value="&amp;nbsp;education_level" style="text;whiteSpace=wrap;html=1;" vertex="1" parent="2vxm4DMvmGCjCKeFNTNF-26">
          <mxGeometry y="780" width="160" height="30" as="geometry" />
        </mxCell>
        <mxCell id="2vxm4DMvmGCjCKeFNTNF-55" value="&amp;nbsp;education_major" style="text;whiteSpace=wrap;html=1;" vertex="1" parent="2vxm4DMvmGCjCKeFNTNF-26">
          <mxGeometry y="810" width="160" height="30" as="geometry" />
        </mxCell>
        <mxCell id="2vxm4DMvmGCjCKeFNTNF-56" value="&amp;nbsp;institution_name" style="text;whiteSpace=wrap;html=1;" vertex="1" parent="2vxm4DMvmGCjCKeFNTNF-26">
          <mxGeometry y="840" width="160" height="30" as="geometry" />
        </mxCell>
        <mxCell id="2vxm4DMvmGCjCKeFNTNF-57" value="&amp;nbsp;graduation_year" style="text;whiteSpace=wrap;html=1;" vertex="1" parent="2vxm4DMvmGCjCKeFNTNF-26">
          <mxGeometry y="870" width="160" height="30" as="geometry" />
        </mxCell>
        <mxCell id="2vxm4DMvmGCjCKeFNTNF-58" value="billing_rate" style="text;whiteSpace=wrap;html=1;" vertex="1" parent="2vxm4DMvmGCjCKeFNTNF-26">
          <mxGeometry y="900" width="160" height="30" as="geometry" />
        </mxCell>
        <mxCell id="2vxm4DMvmGCjCKeFNTNF-59" value="" style="line;html=1;strokeWidth=1;align=left;verticalAlign=middle;spacingTop=-1;spacingLeft=3;spacingRight=3;rotatable=0;labelPosition=right;points=[];portConstraint=eastwest;" vertex="1" parent="2vxm4DMvmGCjCKeFNTNF-26">
          <mxGeometry y="930" width="160" height="10" as="geometry" />
        </mxCell>
        <mxCell id="2vxm4DMvmGCjCKeFNTNF-60" value="client" style="swimlane;fontStyle=0;align=center;verticalAlign=top;childLayout=stackLayout;horizontal=1;startSize=26;horizontalStack=0;resizeParent=1;resizeLast=0;collapsible=1;marginBottom=0;rounded=0;shadow=0;strokeWidth=1;" vertex="1" parent="2vxm4DMvmGCjCKeFNTNF-1">
          <mxGeometry x="50" y="516" width="160" height="180" as="geometry">
            <mxRectangle x="340" y="380" width="170" height="26" as="alternateBounds" />
          </mxGeometry>
        </mxCell>
        <mxCell id="2vxm4DMvmGCjCKeFNTNF-61" value="*id" style="text;align=left;verticalAlign=top;spacingLeft=4;spacingRight=4;overflow=hidden;rotatable=0;points=[[0,0.5],[1,0.5]];portConstraint=eastwest;" vertex="1" parent="2vxm4DMvmGCjCKeFNTNF-60">
          <mxGeometry y="26" width="160" height="26" as="geometry" />
        </mxCell>
        <mxCell id="2vxm4DMvmGCjCKeFNTNF-62" value="name" style="text;align=left;verticalAlign=top;spacingLeft=4;spacingRight=4;overflow=hidden;rotatable=0;points=[[0,0.5],[1,0.5]];portConstraint=eastwest;" vertex="1" parent="2vxm4DMvmGCjCKeFNTNF-60">
          <mxGeometry y="52" width="160" height="26" as="geometry" />
        </mxCell>
        <mxCell id="2vxm4DMvmGCjCKeFNTNF-63" value="address" style="text;align=left;verticalAlign=top;spacingLeft=4;spacingRight=4;overflow=hidden;rotatable=0;points=[[0,0.5],[1,0.5]];portConstraint=eastwest;" vertex="1" parent="2vxm4DMvmGCjCKeFNTNF-60">
          <mxGeometry y="78" width="160" height="26" as="geometry" />
        </mxCell>
        <mxCell id="2vxm4DMvmGCjCKeFNTNF-64" value="phone" style="text;align=left;verticalAlign=top;spacingLeft=4;spacingRight=4;overflow=hidden;rotatable=0;points=[[0,0.5],[1,0.5]];portConstraint=eastwest;" vertex="1" parent="2vxm4DMvmGCjCKeFNTNF-60">
          <mxGeometry y="104" width="160" height="26" as="geometry" />
        </mxCell>
        <mxCell id="2vxm4DMvmGCjCKeFNTNF-65" value="npwp" style="text;align=left;verticalAlign=top;spacingLeft=4;spacingRight=4;overflow=hidden;rotatable=0;points=[[0,0.5],[1,0.5]];portConstraint=eastwest;" vertex="1" parent="2vxm4DMvmGCjCKeFNTNF-60">
          <mxGeometry y="130" width="160" height="26" as="geometry" />
        </mxCell>
        <mxCell id="2vxm4DMvmGCjCKeFNTNF-66" value="" style="line;html=1;strokeWidth=1;align=left;verticalAlign=middle;spacingTop=-1;spacingLeft=3;spacingRight=3;rotatable=0;labelPosition=right;points=[];portConstraint=eastwest;" vertex="1" parent="2vxm4DMvmGCjCKeFNTNF-60">
          <mxGeometry y="156" width="160" height="8" as="geometry" />
        </mxCell>
        <mxCell id="2vxm4DMvmGCjCKeFNTNF-67" value="position" style="swimlane;fontStyle=0;align=center;verticalAlign=top;childLayout=stackLayout;horizontal=1;startSize=26;horizontalStack=0;resizeParent=1;resizeLast=0;collapsible=1;marginBottom=0;rounded=0;shadow=0;strokeWidth=1;" vertex="1" parent="2vxm4DMvmGCjCKeFNTNF-1">
          <mxGeometry x="50" y="720" width="160" height="100" as="geometry">
            <mxRectangle x="340" y="380" width="170" height="26" as="alternateBounds" />
          </mxGeometry>
        </mxCell>
        <mxCell id="2vxm4DMvmGCjCKeFNTNF-68" value="*id" style="text;align=left;verticalAlign=top;spacingLeft=4;spacingRight=4;overflow=hidden;rotatable=0;points=[[0,0.5],[1,0.5]];portConstraint=eastwest;" vertex="1" parent="2vxm4DMvmGCjCKeFNTNF-67">
          <mxGeometry y="26" width="160" height="26" as="geometry" />
        </mxCell>
        <mxCell id="2vxm4DMvmGCjCKeFNTNF-69" value="name" style="text;align=left;verticalAlign=top;spacingLeft=4;spacingRight=4;overflow=hidden;rotatable=0;points=[[0,0.5],[1,0.5]];portConstraint=eastwest;" vertex="1" parent="2vxm4DMvmGCjCKeFNTNF-67">
          <mxGeometry y="52" width="160" height="26" as="geometry" />
        </mxCell>
        <mxCell id="2vxm4DMvmGCjCKeFNTNF-70" value="" style="line;html=1;strokeWidth=1;align=left;verticalAlign=middle;spacingTop=-1;spacingLeft=3;spacingRight=3;rotatable=0;labelPosition=right;points=[];portConstraint=eastwest;" vertex="1" parent="2vxm4DMvmGCjCKeFNTNF-67">
          <mxGeometry y="78" width="160" height="8" as="geometry" />
        </mxCell>
        <mxCell id="2vxm4DMvmGCjCKeFNTNF-71" value="overtime" style="swimlane;fontStyle=0;align=center;verticalAlign=top;childLayout=stackLayout;horizontal=1;startSize=26;horizontalStack=0;resizeParent=1;resizeLast=0;collapsible=1;marginBottom=0;rounded=0;shadow=0;strokeWidth=1;" vertex="1" parent="2vxm4DMvmGCjCKeFNTNF-1">
          <mxGeometry x="600" y="256" width="160" height="216" as="geometry">
            <mxRectangle x="340" y="380" width="170" height="26" as="alternateBounds" />
          </mxGeometry>
        </mxCell>
        <mxCell id="2vxm4DMvmGCjCKeFNTNF-72" value="*nik" style="text;align=left;verticalAlign=top;spacingLeft=4;spacingRight=4;overflow=hidden;rotatable=0;points=[[0,0.5],[1,0.5]];portConstraint=eastwest;" vertex="1" parent="2vxm4DMvmGCjCKeFNTNF-71">
          <mxGeometry y="26" width="160" height="26" as="geometry" />
        </mxCell>
        <mxCell id="2vxm4DMvmGCjCKeFNTNF-73" value="name" style="text;align=left;verticalAlign=top;spacingLeft=4;spacingRight=4;overflow=hidden;rotatable=0;points=[[0,0.5],[1,0.5]];portConstraint=eastwest;" vertex="1" parent="2vxm4DMvmGCjCKeFNTNF-71">
          <mxGeometry y="52" width="160" height="26" as="geometry" />
        </mxCell>
        <mxCell id="2vxm4DMvmGCjCKeFNTNF-74" value="**date" style="text;align=left;verticalAlign=top;spacingLeft=4;spacingRight=4;overflow=hidden;rotatable=0;points=[[0,0.5],[1,0.5]];portConstraint=eastwest;" vertex="1" parent="2vxm4DMvmGCjCKeFNTNF-71">
          <mxGeometry y="78" width="160" height="26" as="geometry" />
        </mxCell>
        <mxCell id="2vxm4DMvmGCjCKeFNTNF-75" value="clock_in" style="text;align=left;verticalAlign=top;spacingLeft=4;spacingRight=4;overflow=hidden;rotatable=0;points=[[0,0.5],[1,0.5]];portConstraint=eastwest;" vertex="1" parent="2vxm4DMvmGCjCKeFNTNF-71">
          <mxGeometry y="104" width="160" height="26" as="geometry" />
        </mxCell>
        <mxCell id="2vxm4DMvmGCjCKeFNTNF-76" value="clock_out" style="text;align=left;verticalAlign=top;spacingLeft=4;spacingRight=4;overflow=hidden;rotatable=0;points=[[0,0.5],[1,0.5]];portConstraint=eastwest;" vertex="1" parent="2vxm4DMvmGCjCKeFNTNF-71">
          <mxGeometry y="130" width="160" height="26" as="geometry" />
        </mxCell>
        <mxCell id="2vxm4DMvmGCjCKeFNTNF-77" value="convertion_hour" style="text;align=left;verticalAlign=top;spacingLeft=4;spacingRight=4;overflow=hidden;rotatable=0;points=[[0,0.5],[1,0.5]];portConstraint=eastwest;" vertex="1" parent="2vxm4DMvmGCjCKeFNTNF-71">
          <mxGeometry y="156" width="160" height="26" as="geometry" />
        </mxCell>
        <mxCell id="2vxm4DMvmGCjCKeFNTNF-78" value="activity" style="text;align=left;verticalAlign=top;spacingLeft=4;spacingRight=4;overflow=hidden;rotatable=0;points=[[0,0.5],[1,0.5]];portConstraint=eastwest;" vertex="1" parent="2vxm4DMvmGCjCKeFNTNF-71">
          <mxGeometry y="182" width="160" height="26" as="geometry" />
        </mxCell>
        <mxCell id="2vxm4DMvmGCjCKeFNTNF-79" value="" style="line;html=1;strokeWidth=1;align=left;verticalAlign=middle;spacingTop=-1;spacingLeft=3;spacingRight=3;rotatable=0;labelPosition=right;points=[];portConstraint=eastwest;" vertex="1" parent="2vxm4DMvmGCjCKeFNTNF-71">
          <mxGeometry y="208" width="160" height="8" as="geometry" />
        </mxCell>
        <mxCell id="2vxm4DMvmGCjCKeFNTNF-80" value="user_login" style="swimlane;fontStyle=0;align=center;verticalAlign=top;childLayout=stackLayout;horizontal=1;startSize=26;horizontalStack=0;resizeParent=1;resizeLast=0;collapsible=1;marginBottom=0;rounded=0;shadow=0;strokeWidth=1;" vertex="1" parent="2vxm4DMvmGCjCKeFNTNF-1">
          <mxGeometry x="600" y="950" width="160" height="180" as="geometry">
            <mxRectangle x="340" y="380" width="170" height="26" as="alternateBounds" />
          </mxGeometry>
        </mxCell>
        <mxCell id="2vxm4DMvmGCjCKeFNTNF-81" value="*username" style="text;align=left;verticalAlign=top;spacingLeft=4;spacingRight=4;overflow=hidden;rotatable=0;points=[[0,0.5],[1,0.5]];portConstraint=eastwest;" vertex="1" parent="2vxm4DMvmGCjCKeFNTNF-80">
          <mxGeometry y="26" width="160" height="26" as="geometry" />
        </mxCell>
        <mxCell id="2vxm4DMvmGCjCKeFNTNF-82" value="name" style="text;align=left;verticalAlign=top;spacingLeft=4;spacingRight=4;overflow=hidden;rotatable=0;points=[[0,0.5],[1,0.5]];portConstraint=eastwest;" vertex="1" parent="2vxm4DMvmGCjCKeFNTNF-80">
          <mxGeometry y="52" width="160" height="26" as="geometry" />
        </mxCell>
        <mxCell id="2vxm4DMvmGCjCKeFNTNF-83" value="level" style="text;align=left;verticalAlign=top;spacingLeft=4;spacingRight=4;overflow=hidden;rotatable=0;points=[[0,0.5],[1,0.5]];portConstraint=eastwest;" vertex="1" parent="2vxm4DMvmGCjCKeFNTNF-80">
          <mxGeometry y="78" width="160" height="26" as="geometry" />
        </mxCell>
        <mxCell id="2vxm4DMvmGCjCKeFNTNF-84" value="password" style="text;align=left;verticalAlign=top;spacingLeft=4;spacingRight=4;overflow=hidden;rotatable=0;points=[[0,0.5],[1,0.5]];portConstraint=eastwest;" vertex="1" parent="2vxm4DMvmGCjCKeFNTNF-80">
          <mxGeometry y="104" width="160" height="26" as="geometry" />
        </mxCell>
        <mxCell id="2vxm4DMvmGCjCKeFNTNF-85" value="status" style="text;align=left;verticalAlign=top;spacingLeft=4;spacingRight=4;overflow=hidden;rotatable=0;points=[[0,0.5],[1,0.5]];portConstraint=eastwest;" vertex="1" parent="2vxm4DMvmGCjCKeFNTNF-80">
          <mxGeometry y="130" width="160" height="26" as="geometry" />
        </mxCell>
        <mxCell id="2vxm4DMvmGCjCKeFNTNF-86" value="" style="line;html=1;strokeWidth=1;align=left;verticalAlign=middle;spacingTop=-1;spacingLeft=3;spacingRight=3;rotatable=0;labelPosition=right;points=[];portConstraint=eastwest;" vertex="1" parent="2vxm4DMvmGCjCKeFNTNF-80">
          <mxGeometry y="156" width="160" height="8" as="geometry" />
        </mxCell>
        <mxCell id="2vxm4DMvmGCjCKeFNTNF-87" style="edgeStyle=orthogonalEdgeStyle;rounded=0;orthogonalLoop=1;jettySize=auto;html=1;exitX=1;exitY=0.5;exitDx=0;exitDy=0;entryX=0;entryY=0.5;entryDx=0;entryDy=0;" edge="1" parent="2vxm4DMvmGCjCKeFNTNF-1" source="2vxm4DMvmGCjCKeFNTNF-11" target="2vxm4DMvmGCjCKeFNTNF-27">
          <mxGeometry relative="1" as="geometry" />
        </mxCell>
        <mxCell id="2vxm4DMvmGCjCKeFNTNF-88" style="edgeStyle=orthogonalEdgeStyle;rounded=0;orthogonalLoop=1;jettySize=auto;html=1;exitX=1;exitY=0.5;exitDx=0;exitDy=0;entryX=1.001;entryY=0.874;entryDx=0;entryDy=0;entryPerimeter=0;" edge="1" parent="2vxm4DMvmGCjCKeFNTNF-1" source="2vxm4DMvmGCjCKeFNTNF-13" target="2vxm4DMvmGCjCKeFNTNF-8">
          <mxGeometry relative="1" as="geometry" />
        </mxCell>
        <mxCell id="2vxm4DMvmGCjCKeFNTNF-89" style="edgeStyle=orthogonalEdgeStyle;rounded=0;orthogonalLoop=1;jettySize=auto;html=1;exitX=1;exitY=0.5;exitDx=0;exitDy=0;entryX=0;entryY=0.5;entryDx=0;entryDy=0;" edge="1" parent="2vxm4DMvmGCjCKeFNTNF-1" source="2vxm4DMvmGCjCKeFNTNF-68" target="2vxm4DMvmGCjCKeFNTNF-30">
          <mxGeometry relative="1" as="geometry">
            <Array as="points">
              <mxPoint x="290" y="759" />
              <mxPoint x="290" y="157" />
            </Array>
          </mxGeometry>
        </mxCell>
        <mxCell id="2vxm4DMvmGCjCKeFNTNF-90" style="edgeStyle=orthogonalEdgeStyle;rounded=0;orthogonalLoop=1;jettySize=auto;html=1;exitX=0;exitY=0.5;exitDx=0;exitDy=0;entryX=1;entryY=0.5;entryDx=0;entryDy=0;" edge="1" parent="2vxm4DMvmGCjCKeFNTNF-1" source="2vxm4DMvmGCjCKeFNTNF-19" target="2vxm4DMvmGCjCKeFNTNF-27">
          <mxGeometry relative="1" as="geometry" />
        </mxCell>
        <mxCell id="2vxm4DMvmGCjCKeFNTNF-91" style="edgeStyle=orthogonalEdgeStyle;rounded=0;orthogonalLoop=1;jettySize=auto;html=1;exitX=0;exitY=0.5;exitDx=0;exitDy=0;" edge="1" parent="2vxm4DMvmGCjCKeFNTNF-1" source="2vxm4DMvmGCjCKeFNTNF-72" target="2vxm4DMvmGCjCKeFNTNF-27">
          <mxGeometry relative="1" as="geometry">
            <mxPoint x="560" y="180" as="targetPoint" />
          </mxGeometry>
        </mxCell>
        <mxCell id="2vxm4DMvmGCjCKeFNTNF-92" style="edgeStyle=orthogonalEdgeStyle;rounded=0;orthogonalLoop=1;jettySize=auto;html=1;exitX=0;exitY=0.5;exitDx=0;exitDy=0;entryX=1;entryY=0.5;entryDx=0;entryDy=0;" edge="1" parent="2vxm4DMvmGCjCKeFNTNF-1" source="2vxm4DMvmGCjCKeFNTNF-81" target="2vxm4DMvmGCjCKeFNTNF-39">
          <mxGeometry relative="1" as="geometry">
            <Array as="points">
              <mxPoint x="530" y="989" />
              <mxPoint x="530" y="391" />
            </Array>
          </mxGeometry>
        </mxCell>
        <mxCell id="2vxm4DMvmGCjCKeFNTNF-93" style="edgeStyle=orthogonalEdgeStyle;rounded=0;orthogonalLoop=1;jettySize=auto;html=1;exitX=0;exitY=0.5;exitDx=0;exitDy=0;entryX=1;entryY=0.25;entryDx=0;entryDy=0;" edge="1" parent="2vxm4DMvmGCjCKeFNTNF-1" source="2vxm4DMvmGCjCKeFNTNF-29" target="2vxm4DMvmGCjCKeFNTNF-60">
          <mxGeometry relative="1" as="geometry" />
        </mxCell>
        <mxCell id="2vxm4DMvmGCjCKeFNTNF-94" value="cuti" style="swimlane;fontStyle=0;align=center;verticalAlign=top;childLayout=stackLayout;horizontal=1;startSize=26;horizontalStack=0;resizeParent=1;resizeLast=0;collapsible=1;marginBottom=0;rounded=0;shadow=0;strokeWidth=1;" vertex="1" parent="2vxm4DMvmGCjCKeFNTNF-1">
          <mxGeometry x="600" y="490" width="160" height="216" as="geometry">
            <mxRectangle x="340" y="380" width="170" height="26" as="alternateBounds" />
          </mxGeometry>
        </mxCell>
        <mxCell id="2vxm4DMvmGCjCKeFNTNF-95" value="*ID" style="text;align=left;verticalAlign=top;spacingLeft=4;spacingRight=4;overflow=hidden;rotatable=0;points=[[0,0.5],[1,0.5]];portConstraint=eastwest;" vertex="1" parent="2vxm4DMvmGCjCKeFNTNF-94">
          <mxGeometry y="26" width="160" height="26" as="geometry" />
        </mxCell>
        <mxCell id="2vxm4DMvmGCjCKeFNTNF-96" value="**NIK" style="text;align=left;verticalAlign=top;spacingLeft=4;spacingRight=4;overflow=hidden;rotatable=0;points=[[0,0.5],[1,0.5]];portConstraint=eastwest;" vertex="1" parent="2vxm4DMvmGCjCKeFNTNF-94">
          <mxGeometry y="52" width="160" height="26" as="geometry" />
        </mxCell>
        <mxCell id="2vxm4DMvmGCjCKeFNTNF-97" value="**date" style="text;align=left;verticalAlign=top;spacingLeft=4;spacingRight=4;overflow=hidden;rotatable=0;points=[[0,0.5],[1,0.5]];portConstraint=eastwest;" vertex="1" parent="2vxm4DMvmGCjCKeFNTNF-94">
          <mxGeometry y="78" width="160" height="26" as="geometry" />
        </mxCell>
        <mxCell id="2vxm4DMvmGCjCKeFNTNF-98" value="activity" style="text;align=left;verticalAlign=top;spacingLeft=4;spacingRight=4;overflow=hidden;rotatable=0;points=[[0,0.5],[1,0.5]];portConstraint=eastwest;" vertex="1" parent="2vxm4DMvmGCjCKeFNTNF-94">
          <mxGeometry y="104" width="160" height="26" as="geometry" />
        </mxCell>
        <mxCell id="2vxm4DMvmGCjCKeFNTNF-99" value="remarks" style="text;align=left;verticalAlign=top;spacingLeft=4;spacingRight=4;overflow=hidden;rotatable=0;points=[[0,0.5],[1,0.5]];portConstraint=eastwest;" vertex="1" parent="2vxm4DMvmGCjCKeFNTNF-94">
          <mxGeometry y="130" width="160" height="26" as="geometry" />
        </mxCell>
        <mxCell id="2vxm4DMvmGCjCKeFNTNF-100" value="status" style="text;align=left;verticalAlign=top;spacingLeft=4;spacingRight=4;overflow=hidden;rotatable=0;points=[[0,0.5],[1,0.5]];portConstraint=eastwest;" vertex="1" parent="2vxm4DMvmGCjCKeFNTNF-94">
          <mxGeometry y="156" width="160" height="26" as="geometry" />
        </mxCell>
        <mxCell id="2vxm4DMvmGCjCKeFNTNF-101" value="adddate" style="text;align=left;verticalAlign=top;spacingLeft=4;spacingRight=4;overflow=hidden;rotatable=0;points=[[0,0.5],[1,0.5]];portConstraint=eastwest;" vertex="1" parent="2vxm4DMvmGCjCKeFNTNF-94">
          <mxGeometry y="182" width="160" height="26" as="geometry" />
        </mxCell>
        <mxCell id="2vxm4DMvmGCjCKeFNTNF-102" value="" style="line;html=1;strokeWidth=1;align=left;verticalAlign=middle;spacingTop=-1;spacingLeft=3;spacingRight=3;rotatable=0;labelPosition=right;points=[];portConstraint=eastwest;" vertex="1" parent="2vxm4DMvmGCjCKeFNTNF-94">
          <mxGeometry y="208" width="160" height="8" as="geometry" />
        </mxCell>
        <mxCell id="2vxm4DMvmGCjCKeFNTNF-103" style="edgeStyle=orthogonalEdgeStyle;rounded=0;orthogonalLoop=1;jettySize=auto;html=1;exitX=0;exitY=0.5;exitDx=0;exitDy=0;entryX=1;entryY=0.5;entryDx=0;entryDy=0;" edge="1" parent="2vxm4DMvmGCjCKeFNTNF-1" source="2vxm4DMvmGCjCKeFNTNF-96" target="2vxm4DMvmGCjCKeFNTNF-27">
          <mxGeometry relative="1" as="geometry" />
        </mxCell>
        <mxCell id="2vxm4DMvmGCjCKeFNTNF-104" value="izin_sakit" style="swimlane;fontStyle=0;align=center;verticalAlign=top;childLayout=stackLayout;horizontal=1;startSize=26;horizontalStack=0;resizeParent=1;resizeLast=0;collapsible=1;marginBottom=0;rounded=0;shadow=0;strokeWidth=1;" vertex="1" parent="2vxm4DMvmGCjCKeFNTNF-1">
          <mxGeometry x="600" y="720" width="160" height="216" as="geometry">
            <mxRectangle x="340" y="380" width="170" height="26" as="alternateBounds" />
          </mxGeometry>
        </mxCell>
        <mxCell id="2vxm4DMvmGCjCKeFNTNF-105" value="*ID" style="text;align=left;verticalAlign=top;spacingLeft=4;spacingRight=4;overflow=hidden;rotatable=0;points=[[0,0.5],[1,0.5]];portConstraint=eastwest;" vertex="1" parent="2vxm4DMvmGCjCKeFNTNF-104">
          <mxGeometry y="26" width="160" height="26" as="geometry" />
        </mxCell>
        <mxCell id="2vxm4DMvmGCjCKeFNTNF-106" value="**NIK" style="text;align=left;verticalAlign=top;spacingLeft=4;spacingRight=4;overflow=hidden;rotatable=0;points=[[0,0.5],[1,0.5]];portConstraint=eastwest;" vertex="1" parent="2vxm4DMvmGCjCKeFNTNF-104">
          <mxGeometry y="52" width="160" height="26" as="geometry" />
        </mxCell>
        <mxCell id="2vxm4DMvmGCjCKeFNTNF-107" value="**date" style="text;align=left;verticalAlign=top;spacingLeft=4;spacingRight=4;overflow=hidden;rotatable=0;points=[[0,0.5],[1,0.5]];portConstraint=eastwest;" vertex="1" parent="2vxm4DMvmGCjCKeFNTNF-104">
          <mxGeometry y="78" width="160" height="26" as="geometry" />
        </mxCell>
        <mxCell id="2vxm4DMvmGCjCKeFNTNF-108" value="activity" style="text;align=left;verticalAlign=top;spacingLeft=4;spacingRight=4;overflow=hidden;rotatable=0;points=[[0,0.5],[1,0.5]];portConstraint=eastwest;" vertex="1" parent="2vxm4DMvmGCjCKeFNTNF-104">
          <mxGeometry y="104" width="160" height="26" as="geometry" />
        </mxCell>
        <mxCell id="2vxm4DMvmGCjCKeFNTNF-109" value="remarks" style="text;align=left;verticalAlign=top;spacingLeft=4;spacingRight=4;overflow=hidden;rotatable=0;points=[[0,0.5],[1,0.5]];portConstraint=eastwest;" vertex="1" parent="2vxm4DMvmGCjCKeFNTNF-104">
          <mxGeometry y="130" width="160" height="26" as="geometry" />
        </mxCell>
        <mxCell id="2vxm4DMvmGCjCKeFNTNF-110" value="status" style="text;align=left;verticalAlign=top;spacingLeft=4;spacingRight=4;overflow=hidden;rotatable=0;points=[[0,0.5],[1,0.5]];portConstraint=eastwest;" vertex="1" parent="2vxm4DMvmGCjCKeFNTNF-104">
          <mxGeometry y="156" width="160" height="26" as="geometry" />
        </mxCell>
        <mxCell id="2vxm4DMvmGCjCKeFNTNF-111" value="adddate" style="text;align=left;verticalAlign=top;spacingLeft=4;spacingRight=4;overflow=hidden;rotatable=0;points=[[0,0.5],[1,0.5]];portConstraint=eastwest;" vertex="1" parent="2vxm4DMvmGCjCKeFNTNF-104">
          <mxGeometry y="182" width="160" height="26" as="geometry" />
        </mxCell>
        <mxCell id="2vxm4DMvmGCjCKeFNTNF-112" value="" style="line;html=1;strokeWidth=1;align=left;verticalAlign=middle;spacingTop=-1;spacingLeft=3;spacingRight=3;rotatable=0;labelPosition=right;points=[];portConstraint=eastwest;" vertex="1" parent="2vxm4DMvmGCjCKeFNTNF-104">
          <mxGeometry y="208" width="160" height="8" as="geometry" />
        </mxCell>
        <mxCell id="2vxm4DMvmGCjCKeFNTNF-113" style="edgeStyle=orthogonalEdgeStyle;rounded=0;orthogonalLoop=1;jettySize=auto;html=1;exitX=0;exitY=0.5;exitDx=0;exitDy=0;entryX=1;entryY=0.5;entryDx=0;entryDy=0;" edge="1" parent="2vxm4DMvmGCjCKeFNTNF-1" source="2vxm4DMvmGCjCKeFNTNF-106" target="2vxm4DMvmGCjCKeFNTNF-27">
          <mxGeometry relative="1" as="geometry">
            <mxPoint x="495" y="79" as="targetPoint" />
            <Array as="points">
              <mxPoint x="547" y="785" />
              <mxPoint x="547" y="79" />
            </Array>
          </mxGeometry>
        </mxCell>
      </root>
    </mxGraphModel>
  </diagram>
</mxfile>
